<?xml version="1.0" encoding="UTF-8" standalone="no"?>
<svg
   xmlns:dc="http://purl.org/dc/elements/1.1/"
   xmlns:cc="http://creativecommons.org/ns#"
   xmlns:rdf="http://www.w3.org/1999/02/22-rdf-syntax-ns#"
   xmlns:svg="http://www.w3.org/2000/svg"
   xmlns="http://www.w3.org/2000/svg"
   xmlns:xlink="http://www.w3.org/1999/xlink"
   xmlns:sodipodi="http://sodipodi.sourceforge.net/DTD/sodipodi-0.dtd"
   xmlns:inkscape="http://www.inkscape.org/namespaces/inkscape"
   shape-rendering="crispEdges"
   width="793.70081"
   height="1122.5197"
   viewBox="0 0 210 297"
   version="1.1"
   id="svg8"
   inkscape:version="1.0 (4035a4f, 2020-05-01)"
   sodipodi:docname="elotl_3.svg">
  <defs
     id="defs2">
    <linearGradient
       inkscape:collect="always"
       id="linearGradient943">
      <stop
         style="stop-color:#ffcc00;stop-opacity:1"
         offset="0"
         id="stop939" />
      <stop
         style="stop-color:#ffdd55;stop-opacity:0;"
         offset="1"
         id="stop941" />
    </linearGradient>
    <rect
       x="45.686191"
       y="-116.49979"
       width="20.558786"
       height="25.127405"
       id="rect878" />
    <linearGradient
       inkscape:collect="always"
       xlink:href="#linearGradient943"
       id="linearGradient945"
       x1="477.5376"
       y1="-147.35146"
       x2="469.68076"
       y2="-494.44531"
       gradientUnits="userSpaceOnUse" />
  </defs>
  <sodipodi:namedview
     id="base"
     pagecolor="#ffffff"
     bordercolor="#666666"
     borderopacity="1.0"
     inkscape:pageopacity="0"
     inkscape:pageshadow="2"
     inkscape:zoom="0.56915012"
     inkscape:cx="7937.9579"
     inkscape:cy="-923.20022"
     inkscape:document-units="mm"
     inkscape:current-layer="layer1"
     inkscape:document-rotation="0"
     showgrid="false"
     units="px"
     showborder="false"
     inkscape:snap-smooth-nodes="true"
     inkscape:lockguides="true"
     inkscape:window-width="1875"
     inkscape:window-height="1018"
     inkscape:window-x="1288"
     inkscape:window-y="23"
     inkscape:window-maximized="0"
     inkscape:snap-object-midpoints="true"
     showguides="false"
     inkscape:pagecheckerboard="false" />
  <metadata
     id="metadata5">
    <rdf:RDF>
      <cc:Work
         rdf:about="">
        <dc:format>image/svg+xml</dc:format>
        <dc:type
           rdf:resource="http://purl.org/dc/dcmitype/StillImage" />
        <dc:title></dc:title>
      </cc:Work>
    </rdf:RDF>
  </metadata>
  <g
     inkscape:label="Layer 1"
     inkscape:groupmode="layer"
     id="layer1">
    <text
       xml:space="preserve"
       id="text875"
       style="fill:black;fill-opacity:1;line-height:1.25;stroke:none;font-family:sans-serif;font-style:normal;font-weight:normal;font-size:10.58333333000000032px;shape-inside:url(#rect878);white-space:pre;" />
    <g
       transform="matrix(2.0024608,0,0,2.002461,-2016.0394,333.86522)"
       id="g1243">
      <rect
         inkscape:export-ydpi="491.88443"
         inkscape:export-xdpi="491.88443"
         ry="0"
         y="-333.04559"
         x="2011.0905"
         height="105.70327"
         width="105.70328"
         id="rect1312"
         style="fill:#fcfefd;fill-opacity:1;stroke:none;stroke-width:0.13;stroke-linecap:round;stroke-linejoin:round;stroke-miterlimit:4;stroke-dasharray:none;stroke-opacity:0.8" />
      <g
         id="g1210"
         inkscape:export-xdpi="491.88443"
         inkscape:export-ydpi="491.88443">
        <text
           inkscape:export-ydpi="96.118111"
           inkscape:export-xdpi="96.118111"
           id="text1326"
           y="-239.03705"
           x="2034.519"
           style="font-style:normal;font-weight:normal;font-size:15.7334px;line-height:1.25;font-family:sans-serif;fill:#000000;fill-opacity:1;stroke:none;stroke-width:0.0655557"
           xml:space="preserve"><tspan
             style="font-style:normal;font-variant:normal;font-weight:normal;font-stretch:normal;font-family:BabaPro;-inkscape-font-specification:BabaPro;fill:#000000;fill-opacity:1;stroke-width:0.0655557"
             y="-239.03705"
             x="2034.519"
             id="tspan1324"
             sodipodi:role="line"><tspan
               style="fill:#000000;fill-opacity:1;stroke-width:0.0655557"
               id="tspan1314">E</tspan><tspan
               style="fill:#000000;fill-opacity:1;stroke-width:0.0655557"
               id="tspan1316">L</tspan><tspan
               style="fill:#000000;fill-opacity:1;stroke-width:0.0655557"
               id="tspan1318">O</tspan><tspan
               style="fill:#000000;fill-opacity:1;stroke-width:0.0655557"
               id="tspan1320">T</tspan><tspan
               style="fill:#000000;fill-opacity:1;stroke-width:0.0655557"
               id="tspan1322">L</tspan></tspan></text>
        <g
           inkscape:export-ydpi="96.118111"
           inkscape:export-xdpi="96.118111"
           transform="matrix(0.24776977,0,0,0.24776977,1499.5237,-259.07056)"
           id="g1370">
          <rect
             inkscape:export-ydpi="37.926937"
             inkscape:export-xdpi="37.926937"
             style="fill:#fddc17;fill-opacity:1;stroke:none;stroke-width:5.29167;stroke-linecap:round;stroke-linejoin:round;stroke-miterlimit:4;stroke-dasharray:none;stroke-opacity:1"
             id="rect1328"
             width="162.28719"
             height="271.49072"
             x="2145.509"
             y="-250.15692"
             ry="81.898041" />
          <rect
             ry="81.898041"
             y="-250.15692"
             x="2145.509"
             height="271.49072"
             width="162.28719"
             id="rect1330"
             style="fill:#ffd24c;fill-opacity:1;stroke:none;stroke-width:5.29167;stroke-linecap:round;stroke-linejoin:round;stroke-miterlimit:4;stroke-dasharray:none;stroke-opacity:1"
             inkscape:export-xdpi="37.926937"
             inkscape:export-ydpi="37.926937" />
          <rect
             inkscape:export-ydpi="37.926937"
             inkscape:export-xdpi="37.926937"
             ry="2.7781255"
             y="-204.31494"
             x="2258.9385"
             height="11.90625"
             width="35.163097"
             id="rect1332"
             style="fill:#4c4f6a;fill-opacity:1;stroke-width:0.22133;stroke-linecap:round;stroke-linejoin:round" />
          <rect
             ry="2.7781255"
             y="-203.25659"
             x="2161.1663"
             height="11.90625"
             width="35.163097"
             id="rect1334"
             style="fill:#e16666;fill-opacity:1;stroke-width:0.22133;stroke-linecap:round;stroke-linejoin:round" />
          <rect
             style="fill:#e16666;fill-opacity:1;stroke-width:0.22133;stroke-linecap:round;stroke-linejoin:round"
             id="rect1336"
             width="35.163097"
             height="11.90625"
             x="2209.071"
             y="-145.76508"
             ry="2.7781255" />
          <rect
             style="fill:#eaf6f3;fill-opacity:1;stroke-width:0.22133;stroke-linecap:round;stroke-linejoin:round"
             id="rect1338"
             width="35.163097"
             height="11.90625"
             x="2153.677"
             y="-146.6178"
             ry="2.7781255" />
          <rect
             style="fill:#4c4f6a;fill-opacity:1;stroke-width:0.22133;stroke-linecap:round;stroke-linejoin:round"
             id="rect1340"
             width="35.163097"
             height="11.90625"
             x="2264.458"
             y="-131.34525"
             ry="2.7781255" />
          <rect
             style="fill:#eaf6f3;fill-opacity:1;stroke-width:0.22133;stroke-linecap:round;stroke-linejoin:round"
             id="rect1342"
             width="35.163097"
             height="11.90625"
             x="2208.4292"
             y="-183.94189"
             ry="2.7781255" />
          <rect
             ry="2.7781255"
             y="-234.60156"
             x="2200.7573"
             height="11.90625"
             width="35.163097"
             id="rect1344"
             style="fill:#4c4f6a;fill-opacity:1;stroke-width:0.22133;stroke-linecap:round;stroke-linejoin:round" />
          <rect
             style="fill:#e16666;fill-opacity:1;stroke-width:0.22133;stroke-linecap:round;stroke-linejoin:round"
             id="rect1346"
             width="35.163097"
             height="11.90625"
             x="2254.1758"
             y="-166.74384"
             ry="2.7781255" />
          <path
             id="path1348"
             style="fill:#2a8ca1;fill-opacity:1;stroke-width:2.12458;stroke-linecap:round;stroke-linejoin:round"
             d="m 2226.4,-124.12847 c -1.3242,-0.0157 -2.6578,10e-4 -3.9993,0.0512 -1.3415,0.0499 -2.6907,0.13323 -4.0467,0.25011 -1.3561,0.11688 -2.7191,0.26753 -4.0871,0.45269 -1.368,0.18515 -2.7409,0.40462 -4.1182,0.65939 -1.3772,0.25477 -2.7586,0.54451 -4.1423,0.87023 -1.3838,0.32572 -2.7703,0.68721 -4.1579,1.0852 -1.3876,0.398 -2.776,0.83271 -4.1646,1.30432 -1.3886,0.47161 -2.7771,0.98048 -4.1641,1.52704 -1.387,0.54655 -2.7726,1.13054 -4.1553,1.75338 -1.3827,0.62283 -2.7626,1.28444 -4.1382,1.98489 -1.3757,0.70045 -2.7476,1.44011 -4.1135,2.2195 -1.3659,0.77939 -2.7259,1.59858 -4.0793,2.45825 -1.3535,0.85967 -2.7002,1.75984 -4.0385,2.70113 -3.3243,2.11236 -6.0836,4.96685 -8.5194,7.676011 -1.4354,1.60061 -2.7954,3.22538 -4.0783,4.87361 -1.2829,1.64822 -2.4887,3.31993 -3.6158,5.01416 -1.1271,1.69424 -2.1755,3.41092 -3.1435,5.14956 -0.5447,0.9783 -1.0041,1.97943 -1.4976,2.97139 -0.3835,0.77095 -0.8114,1.53038 -1.1637,2.30942 -0.8057,1.78142 -1.5293,3.5838 -2.1694,5.40639 -0.6401,1.82259 -1.1969,3.66516 -1.6681,5.52731 -0.2261,0.89355 -0.4298,1.79203 -0.6165,2.69441 -0.01,0.0379 -0.018,0.0753 -0.026,0.11317 -0.1928,0.94066 -0.3641,1.88648 -0.5137,2.83652 -0.1495,0.95005 -0.2775,1.90468 -0.3834,2.86391 -0.1059,0.95923 -0.1898,1.92308 -0.2517,2.8913 -0.062,0.96821 -0.1014,1.94065 -0.1188,2.91765 -0.017,0.97699 -0.012,1.95843 0.015,2.944 0.028,0.98558 0.077,1.97538 0.1498,2.96933 0.073,0.99395 0.1684,1.992 0.2868,2.99413 0.1184,1.00213 0.2598,2.00832 0.4243,3.01842 0.1219,0.74879 0.27,1.50209 0.4175,2.25516 0.052,0.26282 0.091,0.5237 0.1458,0.78704 0.2504,1.20827 0.6021,2.43253 0.9188,3.65145 0.2168,0.83477 0.3812,1.661 0.6294,2.50062 0.6105,2.06564 1.316,4.14603 2.1182,6.23993 0.8022,2.09391 1.7008,4.20153 2.698,6.3221 0.9972,2.12056 2.0928,4.254 3.2882,6.39961 1.2323,1.91059 2.4852,3.7840004 3.7646,5.6130904 1.2795,1.82909 2.5854,3.61378 3.9233,5.34644 1.3379,1.73267003 2.7079,3.41353003 4.1155,5.03484 1.4076,1.62131 2.8528,3.18323 4.3413,4.67827 1.4886,1.49503 3.0206,2.9229096 4.6013,4.2767396 0.4152,0.35562 0.843,0.69192 1.2651,1.03714 0.051,0.0359 0.1012,0.0717 0.1519,0.10749 0.1023,0.0723 0.2048,0.14427 0.3075,0.21601 0.1026,0.0718 0.2055,0.14323 0.3085,0.21446 0.103,0.0712 0.2061,0.1422 0.3095,0.2129 0.1035,0.0705 0.2072,0.14083 0.3111,0.21084 0.1037,0.0702 0.2076,0.14014 0.3116,0.20981 0.1041,0.0697 0.2083,0.1391 0.3127,0.20826 0.1043,0.069 0.2089,0.13772 0.3136,0.20618 0.1048,0.0686 0.2097,0.13704 0.3147,0.20516 0.1049,0.068 0.21,0.13566 0.3153,0.20309 0.1054,0.0675 0.211,0.13463 0.3167,0.20154 0.1058,0.0669 0.2117,0.13359 0.3178,0.19998 0.106,0.0664 0.2121,0.13257 0.3184,0.19844 0.1064,0.0659 0.2131,0.13153 0.3198,0.19689 0.1067,0.0654 0.2135,0.13049 0.3204,0.19533 0.1069,0.0647 0.2142,0.12912 0.3215,0.19328 0.1073,0.0644 0.2148,0.12843 0.3224,0.19223 0.1075,0.0637 0.2152,0.12705 0.323,0.19017 0.108,0.0631 0.2162,0.12602 0.3245,0.18862 0.1082,0.0626 0.2166,0.12499 0.3251,0.18707 0.1085,0.0621 0.2172,0.12395 0.3261,0.18552 0.1087,0.0614 0.2175,0.12257 0.3266,0.18345 0.1092,0.0611 0.2186,0.12189 0.328,0.18242 0.1095,0.0604 0.219,0.12051 0.3287,0.18035 0.1097,0.0599 0.2197,0.11947 0.3298,0.1788 0.1099,0.0592 0.2199,0.1181 0.3302,0.17673 0.1102,0.0587 0.2206,0.11707 0.3312,0.17518 0.1106,0.0583 0.2214,0.11638 0.3323,0.17415 0.1108,0.0575 0.2217,0.11466 0.3328,0.17157 0.111,0.0571 0.2223,0.11397 0.3338,0.17053 0.1115,0.0564 0.2231,0.11259 0.3349,0.16847 0.1115,0.0559 0.2233,0.11156 0.3353,0.16691 0.1119,0.0554 0.2239,0.11053 0.3359,0.16537 0.1124,0.0547 0.2248,0.10915 0.3375,0.16329 0.1124,0.0542 0.2248,0.10812 0.3374,0.16175 0.1129,0.0537 0.2259,0.10709 0.3391,0.1602 0.1128,0.0532 0.2258,0.10605 0.3389,0.15864 0.1133,0.0525 0.2266,0.10468 0.34,0.15658 0.1136,0.0518 0.2273,0.1033 0.3411,0.15452 0.1137,0.0514 0.2276,0.1026 0.3416,0.15347 0.1141,0.0508 0.2283,0.10124 0.3426,0.15142 0.1142,0.0503 0.2287,0.1002 0.3432,0.14986 0.1144,0.0496 0.229,0.0988 0.3435,0.14779 0.1149,0.049 0.2298,0.0978 0.3448,0.14625 0.115,0.0485 0.23,0.0968 0.3452,0.14469 0.1151,0.0478 0.2304,0.0954 0.3457,0.14263 0.1155,0.0471 0.2311,0.094 0.3467,0.14056 0.1157,0.0468 0.2315,0.0933 0.3473,0.13953 0.116,0.0461 0.2321,0.0919 0.3483,0.13746 0.116,0.0454 0.232,0.0906 0.3483,0.13539 0.1164,0.0451 0.2328,0.0899 0.3493,0.13436 0.1166,0.0442 0.2334,0.0881 0.3503,0.13177 0.1168,0.0437 0.2336,0.0871 0.3505,0.13022 0.1169,0.0432 0.2342,0.0861 0.3514,0.12868 0.1169,0.0427 0.2342,0.085 0.3514,0.12712 0.1173,0.042 0.2347,0.0837 0.3524,0.12506 0.1177,0.0413 0.2356,0.0823 0.3535,0.12299 0.1176,0.0408 0.2354,0.0813 0.3535,0.12144 0.1179,0.0401 0.2359,0.0799 0.3538,0.11937 0.1184,0.0398 0.2367,0.0792 0.3552,0.11834 0.1184,0.0389 0.2369,0.0775 0.3555,0.11576 0.1184,0.0384 0.2369,0.0764 0.3554,0.1142 0.1189,0.0378 0.2378,0.0754 0.3567,0.11266 0.1188,0.0372 0.238,0.074 0.357,0.11058 0.1192,0.0365 0.2383,0.0726 0.3577,0.10853 0.1192,0.036 0.2386,0.0716 0.358,0.10697 0.1196,0.0354 0.2391,0.0706 0.3586,0.10541 0.1198,0.0348 0.2395,0.0692 0.3593,0.10336 0.1198,0.0341 0.2396,0.0678 0.3597,0.10128 0.1198,0.0335 0.2396,0.0668 0.3596,0.0997 0.1201,0.033 0.2404,0.0658 0.3607,0.0982 0.1204,0.0323 0.2408,0.0644 0.3613,0.0961 0.1203,0.0317 0.2407,0.063 0.3612,0.0941 0.1206,0.0311 0.2413,0.062 0.3622,0.0925 0.1207,0.0305 0.2414,0.0606 0.3623,0.0904 0.1208,0.0299 0.2417,0.0596 0.3627,0.0889 0.1211,0.0293 0.2422,0.0582 0.3633,0.0868 0.1212,0.0286 0.2425,0.0568 0.3638,0.0847 0.1212,0.028 0.2424,0.0558 0.3638,0.0832 0.1216,0.0275 0.2432,0.0547 0.3649,0.0816 0.1214,0.0267 0.2431,0.053 0.3648,0.0791 0.1215,0.0263 0.2431,0.0523 0.3647,0.078 0.1219,0.0255 0.244,0.0506 0.366,0.0754 0.1218,0.025 0.2437,0.0496 0.3658,0.0739 0.122,0.0244 0.2443,0.0485 0.3664,0.0724 0.1223,0.0237 0.2446,0.0472 0.367,0.0703 0.1222,0.023 0.2445,0.0458 0.3668,0.0682 0.1224,0.0225 0.2449,0.0447 0.3674,0.0667 0.1225,0.0218 0.2449,0.0434 0.3674,0.0646 0.1227,0.0211 0.2452,0.042 0.3679,0.0625 0.1228,0.0206 0.2456,0.041 0.3685,0.061 0.1228,0.0199 0.2456,0.0396 0.3685,0.0589 0.123,0.0194 0.2459,0.0386 0.3689,0.0574 0.123,0.0187 0.246,0.0372 0.369,0.0553 0.1232,0.018 0.2464,0.0358 0.3696,0.0532 0.123,0.0175 0.2462,0.0348 0.3694,0.0517 0.1234,0.0169 0.2466,0.0334 0.37,0.0496 0.1233,0.0163 0.2466,0.0324 0.3701,0.0481 0.1234,0.0156 0.2468,0.031 0.3705,0.046 0.1235,0.0149 0.2469,0.0296 0.3705,0.0439 0.1235,0.0143 0.2469,0.0282 0.3705,0.0419 0.1236,0.0138 0.2473,0.0272 0.371,0.0403 0.1236,0.0132 0.2473,0.0261 0.3711,0.0388 0.1237,0.0124 0.2476,0.0244 0.3715,0.0362 0.1238,0.0119 0.2476,0.0234 0.3715,0.0346 0.1238,0.0114 0.2477,0.0224 0.3716,0.0331 0.1238,0.0105 0.2476,0.0206 0.3715,0.0305 0.124,0.01 0.248,0.0196 0.3721,0.0289 0.124,0.009 0.248,0.0186 0.3721,0.0274 0.1241,0.009 0.2483,0.0172 0.3725,0.0253 0.124,0.008 0.2481,0.0158 0.3721,0.0233 0.1242,0.007 0.2484,0.0144 0.3726,0.0212 0.1242,0.007 0.2484,0.0134 0.3726,0.0196 0.1242,0.006 0.2484,0.012 0.3726,0.0176 0.1242,0.006 0.2484,0.011 0.3727,0.016 0.1243,0.005 0.2486,0.01 0.373,0.0139 0.1241,0.004 0.2484,0.008 0.3725,0.0119 0.1244,0.004 0.2488,0.007 0.3732,0.01 0.1243,0.003 0.2487,0.006 0.3732,0.008 0.1241,0.002 0.2482,0.004 0.3725,0.006 0.1243,0.002 0.2487,0.003 0.373,0.005 l 0.3732,0.003 c 0.1243,5.3e-4 0.2487,5.3e-4 0.3732,5.3e-4 0.1242,-3e-5 0.2486,-2.4e-4 0.373,-0.001 0.1243,-7.9e-4 0.2487,-0.002 0.3732,-0.004 0.1243,-0.001 0.2486,-0.003 0.373,-0.005 0.1243,-0.002 0.2484,-0.005 0.3727,-0.007 0.1242,-0.003 0.2487,-0.005 0.3731,-0.009 0.1243,-0.003 0.2486,-0.007 0.3731,-0.0103 0.1204,-0.004 0.2408,-0.008 0.3612,-0.0124 0.6966,-0.053 1.4057,-0.12354 2.1151,-0.19482 0.428,-0.043 0.8432,-0.0681 1.2758,-0.11782 1.3615,-0.15649 2.7468,-0.34659 4.1558,-0.57103 1.4092,-0.22443 2.8424,-0.48348 4.3006,-0.77773 1.4582,-0.29424 2.9408,-0.62368 4.4494,-0.9896 1.5086,-0.36592 3.0428,-0.76822 4.6032,-1.20768 1.5605,-0.43946 4.761,-1.43092 4.761,-1.43092 l 4.9811,-1.48518 c 0,0 2.3991,-0.80064 3.6727,-1.22111 1.2735,-0.42048 2.5773,-0.91475 3.9109,-1.48828 0.9267,-0.39864 1.8872,-0.88801 2.8431,-1.36529 0.4195,-0.20941 0.8226,-0.37386 1.2475,-0.59893 1.3937,-0.73808 2.8174,-1.56122 4.2715,-2.47531 1.4542,-0.91408 2.9391,-1.91944 4.454,-3.0209996 1.515,-1.10156 3.0599,-2.29926 4.6359,-3.59978 1.576,-1.30052 3.1831,-2.70379 4.8204,-4.21473 1.6373,-1.51093997 3.3054,-3.12991 5.0043,-4.86275 1.699,-1.73285 3.4286,-3.57918 5.1894,-5.5454 1.7608,-1.9662204 3.5524,-4.0521204 5.3754,-6.2631804 1.8229,-2.21107 3.6771,-4.5477 5.5624,-7.01508 1.8854,-2.46738 3.802,-5.06539 5.7501,-7.80056 1.948,-2.73517 3.9276,-5.60726 5.9386,-8.62169 2.011,-3.01444 4.0535,-6.17125 6.1278,-9.47643 2.0743,-3.30517 4.1801,-6.75891 6.3179,-10.36629 2.1379,-3.60738 4.3077,-7.36869 6.5093,-11.28975 1.0193,-1.66014 2.0809,-3.25499 3.1833,-4.78782 1.1024,-1.53283 2.2456,-3.00357 3.4277,-4.4142 1.182,-1.41063 2.4028,-2.7615 3.6612,-4.05505 1.2585,-1.29355 2.5547,-2.52982 3.8861,-3.7114 1.3315,-1.18159 2.6984,-2.30852 4.0995,-3.38326 1.4011,-1.07473 2.8361,-2.09709 4.3036,-3.07009 1.4675,-0.97301 2.9674,-1.89657 4.4979,-2.77296 1.5305,-0.87639 3.0918,-1.70591 4.6819,-2.49081 1.5902,-0.78489 3.209,-1.525121 4.8555,-2.223631 1.6465,-0.69851 3.3204,-1.35525 5.0199,-1.97249 1.6995,-0.61725 3.4247,-1.19524 5.1738,-1.73633 1.7492,-0.54109 3.5226,-1.04509 5.3181,-1.51515 1.7954,-0.47006 3.6133,-0.90586 5.4518,-1.31 1.8385,-0.40414 3.6973,-0.77649 5.5754,-1.11983 1.8781,-0.34334 3.7756,-0.65802 5.6901,-0.94568 1.9144,-0.28765 3.846,-0.54839 5.7934,-0.78548 -2.2163,-1.26253 -4.429,-2.43811 -6.6388,-3.52588 -0.1941,-0.0955 -0.3873,-0.16939 -0.5814,-0.26355 l -0.027,-0.014 c -0.1166,-0.0611 -0.2334,-0.12188 -0.3504,-0.18242 -0.1169,-0.0606 -0.2341,-0.12084 -0.3514,-0.18087 -0.1171,-0.0599 -0.2344,-0.11946 -0.3519,-0.1788 -0.1175,-0.0595 -0.2352,-0.11877 -0.3529,-0.17777 -0.1179,-0.059 -0.2359,-0.11774 -0.354,-0.17621 -0.1182,-0.0585 -0.2366,-0.11671 -0.355,-0.17467 -0.1184,-0.0578 -0.2369,-0.11533 -0.3556,-0.1726 -0.1188,-0.0575 -0.2379,-0.11464 -0.357,-0.17156 -0.1189,-0.0568 -0.238,-0.11327 -0.3571,-0.1695 -0.1194,-0.0562 -0.239,-0.11224 -0.3587,-0.16795 -0.1195,-0.0557 -0.2393,-0.1112 -0.3591,-0.1664 -0.12,-0.0552 -0.24,-0.11017 -0.3602,-0.16485 -0.1203,-0.0547 -0.2407,-0.10913 -0.3612,-0.16329 -0.1205,-0.0542 -0.241,-0.10811 -0.3618,-0.16175 -0.1208,-0.0535 -0.2417,-0.10673 -0.3627,-0.15968 -0.121,-0.0531 -0.2421,-0.10604 -0.3633,-0.15865 -0.1213,-0.0525 -0.2428,-0.10466 -0.3643,-0.15658 -0.1215,-0.0519 -0.2431,-0.10362 -0.3649,-0.15503 -0.1218,-0.0514 -0.2438,-0.10259 -0.3658,-0.15348 -0.1222,-0.0509 -0.2445,-0.10156 -0.3669,-0.15192 -0.1224,-0.0502 -0.2449,-0.10019 -0.3675,-0.14987 -0.1227,-0.0497 -0.2455,-0.0992 -0.3684,-0.14831 -0.1229,-0.0494 -0.2459,-0.0985 -0.369,-0.14728 -0.123,-0.0485 -0.2462,-0.0967 -0.3695,-0.14469 -0.1234,-0.0482 -0.2469,-0.0961 -0.3705,-0.14366 -0.1237,-0.0475 -0.2476,-0.0947 -0.3716,-0.14159 -0.1236,-0.0471 -0.2475,-0.094 -0.3715,-0.14056 -0.1243,-0.0464 -0.2485,-0.0926 -0.3731,-0.1385 -0.1242,-0.0457 -0.2486,-0.0912 -0.3731,-0.13642 -0.1246,-0.0454 -0.2493,-0.0905 -0.3741,-0.13539 -0.1248,-0.0447 -0.2496,-0.0892 -0.3746,-0.13333 -0.1252,-0.0442 -0.2505,-0.0881 -0.3758,-0.13177 -0.1253,-0.0437 -0.2507,-0.0871 -0.3762,-0.13023 -0.1254,-0.043 -0.251,-0.0857 -0.3767,-0.12816 -0.1258,-0.0425 -0.2517,-0.0847 -0.3778,-0.1266 -0.126,-0.042 -0.252,-0.0837 -0.3782,-0.12506 -0.1262,-0.0413 -0.2525,-0.0823 -0.3788,-0.12299 -0.1264,-0.0409 -0.2528,-0.0816 -0.3793,-0.12196 -0.1265,-0.0401 -0.2531,-0.0799 -0.3799,-0.11937 -0.1268,-0.0397 -0.2536,-0.0792 -0.3808,-0.11834 -0.127,-0.039 -0.2541,-0.0778 -0.3814,-0.11627 -0.1272,-0.0385 -0.2545,-0.0768 -0.3819,-0.11472 -0.1273,-0.038 -0.2548,-0.0757 -0.3824,-0.11317 -0.1275,-0.0373 -0.2551,-0.0744 -0.3828,-0.11111 -0.1277,-0.0368 -0.2555,-0.0733 -0.3834,-0.10955 -0.1282,-0.0363 -0.2563,-0.0723 -0.3846,-0.10801 -0.128,-0.0356 -0.2562,-0.0709 -0.3845,-0.10593 -0.1284,-0.0351 -0.2569,-0.0699 -0.3855,-0.10439 -0.1284,-0.0346 -0.2568,-0.0688 -0.3854,-0.10283 -0.1288,-0.0339 -0.2577,-0.0675 -0.3865,-0.10077 -0.1288,-0.0334 -0.2576,-0.0664 -0.3867,-0.0992 -0.129,-0.0327 -0.2582,-0.0651 -0.3875,-0.0971 -0.1293,-0.0322 -0.2586,-0.064 -0.3881,-0.0956 -0.1293,-0.0316 -0.2587,-0.063 -0.3881,-0.094 -0.1295,-0.031 -0.259,-0.0616 -0.3886,-0.092 -0.1298,-0.0304 -0.2597,-0.0606 -0.3897,-0.0904 -0.1297,-0.0299 -0.2596,-0.0596 -0.3895,-0.0889 -0.13,-0.0292 -0.2601,-0.0582 -0.3903,-0.0868 -0.13,-0.0287 -0.2604,-0.0571 -0.3906,-0.0853 -0.1304,-0.028 -0.2608,-0.0558 -0.3912,-0.0832 -0.1304,-0.0275 -0.2611,-0.0547 -0.3917,-0.0817 -0.1305,-0.027 -0.2611,-0.0537 -0.3917,-0.0801 -0.1307,-0.0263 -0.2615,-0.0523 -0.3923,-0.078 -0.1308,-0.0258 -0.2617,-0.0513 -0.3927,-0.0765 -0.131,-0.0251 -0.2621,-0.0499 -0.3933,-0.0744 -0.1312,-0.0246 -0.2624,-0.0489 -0.3937,-0.0729 -0.1313,-0.0241 -0.2624,-0.0478 -0.3937,-0.0713 -0.1315,-0.0234 -0.2628,-0.0465 -0.3944,-0.0693 -0.1314,-0.0227 -0.2628,-0.0451 -0.3943,-0.0672 -0.1317,-0.0223 -0.2635,-0.0444 -0.3953,-0.0661 -0.1317,-0.0215 -0.2635,-0.0427 -0.3953,-0.0636 -0.1318,-0.0211 -0.2635,-0.042 -0.3954,-0.0625 -0.1319,-0.0203 -0.2638,-0.0403 -0.3958,-0.0599 -0.1321,-0.0199 -0.2642,-0.0396 -0.3964,-0.0589 -0.1322,-0.0192 -0.2645,-0.0382 -0.3968,-0.0568 -0.1321,-0.0186 -0.2643,-0.0368 -0.3964,-0.0548 -0.1324,-0.018 -0.2649,-0.0358 -0.3974,-0.0532 -0.1324,-0.0175 -0.2649,-0.0347 -0.3974,-0.0517 -0.1324,-0.0168 -0.2649,-0.0334 -0.3973,-0.0496 -0.1327,-0.0163 -0.2653,-0.0323 -0.398,-0.0481 -0.1328,-0.0156 -0.2656,-0.031 -0.3984,-0.046 -0.1328,-0.0151 -0.2656,-0.0299 -0.3985,-0.0444 -0.1327,-0.0144 -0.2655,-0.0285 -0.3984,-0.0424 -0.1329,-0.0139 -0.2659,-0.0275 -0.3989,-0.0408 -0.133,-0.0132 -0.2659,-0.0261 -0.3989,-0.0388 -0.1332,-0.0127 -0.2663,-0.0251 -0.3995,-0.0372 -0.133,-0.0122 -0.2659,-0.0241 -0.399,-0.0357 -0.1332,-0.0113 -0.2666,-0.0223 -0.3999,-0.0331 -0.1332,-0.011 -0.2663,-0.0217 -0.3995,-0.032 -0.1333,-0.0103 -0.2666,-0.0203 -0.4,-0.03 -0.1333,-0.01 -0.2666,-0.0189 -0.3999,-0.0279 -0.1335,-0.009 -0.267,-0.0179 -0.4005,-0.0264 -0.1333,-0.009 -0.2667,-0.0168 -0.3999,-0.0248 -0.1336,-0.008 -0.2671,-0.0155 -0.4006,-0.0227 -0.1336,-0.007 -0.2673,-0.0141 -0.401,-0.0207 -0.1334,-0.007 -0.267,-0.0134 -0.4004,-0.0196 -0.1336,-0.006 -0.2671,-0.0117 -0.4005,-0.017 -0.1337,-0.005 -0.2673,-0.0106 -0.401,-0.0155 -0.1337,-0.005 -0.2673,-0.01 -0.401,-0.014 -0.1337,-0.004 -0.2673,-0.008 -0.401,-0.0119 -0.1337,-0.004 -0.2673,-0.007 -0.401,-0.0103 -0.1337,-0.003 -0.2674,-0.006 -0.401,-0.008 l -0.4016,-0.006 c -0.1336,-0.002 -0.2673,-0.003 -0.401,-0.005 l -0.401,-0.003 c -0.1338,-6.4e-4 -0.2677,-9.8e-4 -0.4015,-10e-4 -0.1337,-1.3e-4 -0.2673,4e-5 -0.401,5.3e-4 -0.1337,5.5e-4 -0.2674,0.001 -0.401,0.003 -0.1339,0.001 -0.2677,0.002 -0.4015,0.004 l -0.4011,0.006 c -0.1336,0.002 -0.2673,0.005 -0.401,0.008 -0.1336,0.003 -0.2673,0.006 -0.401,0.01 -0.1336,0.004 -0.2673,0.007 -0.401,0.0114 -0.1337,0.004 -0.2673,0.009 -0.401,0.0134 -0.1337,0.005 -0.2673,0.01 -0.401,0.015 -0.1335,0.005 -0.267,0.0111 -0.4005,0.017 -0.1337,0.006 -0.2674,0.0121 -0.401,0.0186 -0.1335,0.007 -0.267,0.0135 -0.4005,0.0207 -0.1335,0.007 -0.267,0.0145 -0.4005,0.0222 -0.1335,0.008 -0.267,0.0159 -0.4005,0.0243 -0.1333,0.008 -0.2667,0.0169 -0.4,0.0258 -0.1335,0.009 -0.267,0.0183 -0.4005,0.0279 -0.1332,0.01 -0.2663,0.0193 -0.3994,0.0295 -0.1334,0.01 -0.2667,0.0204 -0.4,0.031 -0.1332,0.0107 -0.2663,0.0217 -0.3994,0.0331 -0.1332,0.0114 -0.2664,0.0231 -0.3995,0.0351 -0.1332,0.0119 -0.2664,0.0242 -0.3995,0.0367 -0.133,0.0125 -0.266,0.0252 -0.3989,0.0382 -0.133,0.0131 -0.266,0.0266 -0.399,0.0403 -0.133,0.0138 -0.2659,0.028 -0.3989,0.0424 -0.1328,0.0143 -0.2657,0.029 -0.3984,0.0439 -0.1327,0.0149 -0.2653,0.03 -0.3979,0.0455 -0.1327,0.0156 -0.2654,0.0314 -0.3979,0.0475 -0.1327,0.0161 -0.2654,0.0324 -0.3979,0.0491 -0.1326,0.0168 -0.265,0.0338 -0.3974,0.0512 -0.1325,0.0173 -0.265,0.0348 -0.3974,0.0527 -0.1324,0.018 -0.2647,0.0362 -0.3969,0.0548 -0.1322,0.0185 -0.2643,0.0373 -0.3964,0.0563 -0.1321,0.0192 -0.2642,0.0386 -0.3963,0.0584 -0.132,0.0197 -0.264,0.0397 -0.3959,0.0599 -0.132,0.0202 -0.2639,0.0407 -0.3958,0.0615 -0.1318,0.0209 -0.2636,0.0421 -0.3953,0.0636 -0.1318,0.0214 -0.2636,0.0431 -0.3953,0.0651 -0.1315,0.0221 -0.263,0.0445 -0.3943,0.0672 -0.1317,0.0226 -0.2633,0.0455 -0.3949,0.0687 -0.1313,0.0233 -0.2625,0.0469 -0.3937,0.0708 -0.1314,0.0238 -0.2626,0.0479 -0.3938,0.0724 -0.1311,0.0245 -0.2622,0.0493 -0.3933,0.0744 -0.1309,0.025 -0.2619,0.0503 -0.3927,0.076 -0.1308,0.0256 -0.2616,0.0514 -0.3922,0.0775 -0.1308,0.0262 -0.2616,0.0528 -0.3923,0.0796 -0.1306,0.0267 -0.2611,0.0538 -0.3916,0.0811 -0.1305,0.0273 -0.2609,0.0548 -0.3913,0.0827 -0.1302,0.028 -0.2605,0.0562 -0.3906,0.0847 -0.1301,0.0286 -0.2602,0.0576 -0.3902,0.0868 -0.1301,0.029 -0.2602,0.0583 -0.3901,0.0879 -0.1298,0.0299 -0.2595,0.06 -0.3891,0.0904 -0.1298,0.0302 -0.2595,0.0607 -0.3892,0.0915 -0.1296,0.0309 -0.2591,0.0621 -0.3886,0.0935 -0.1294,0.0314 -0.2588,0.0631 -0.3881,0.0951 -0.1291,0.0321 -0.2581,0.0645 -0.387,0.0971 -0.1292,0.0326 -0.2582,0.0655 -0.3871,0.0987 -0.1289,0.0333 -0.2578,0.0669 -0.3865,0.10076 -0.1288,0.0336 -0.2575,0.0676 -0.3861,0.10181 -0.1285,0.0343 -0.257,0.069 -0.3854,0.10387 -0.1283,0.035 -0.2565,0.0703 -0.3845,0.10593 -0.1283,0.0355 -0.2564,0.0714 -0.3845,0.10749 -0.1281,0.0361 -0.2561,0.0724 -0.384,0.10904 -0.1277,0.0366 -0.2553,0.0734 -0.3829,0.11059 -0.1275,0.0373 -0.255,0.0748 -0.3824,0.11265 -0.1275,0.0378 -0.255,0.0759 -0.3824,0.1142 -0.1272,0.0385 -0.2544,0.0772 -0.3814,0.11628 -0.127,0.039 -0.254,0.0783 -0.3808,0.11782 -0.1267,0.0395 -0.2534,0.0793 -0.3799,0.11937 -0.1267,0.04 -0.2533,0.0803 -0.3798,0.12092 -0.1263,0.0407 -0.2526,0.0817 -0.3787,0.12299 -0.1262,0.0412 -0.2523,0.0827 -0.3783,0.12454 -0.126,0.0417 -0.252,0.0838 -0.3778,0.1261 -0.1259,0.0424 -0.2516,0.0852 -0.3772,0.12815 -0.1255,0.043 -0.2509,0.0862 -0.3762,0.12971 -0.1253,0.0435 -0.2506,0.0872 -0.3757,0.13126 -0.125,0.044 -0.2499,0.0883 -0.3747,0.13281 -0.125,0.0447 -0.2498,0.0896 -0.3746,0.13487 -0.1247,0.0452 -0.2492,0.0907 -0.3736,0.13643 -0.1243,0.0457 -0.2486,0.0917 -0.3726,0.13797 -0.1242,0.0462 -0.2482,0.0927 -0.3721,0.13953 -0.124,0.0469 -0.2478,0.0941 -0.3715,0.14159 -0.1237,0.0474 -0.2472,0.0952 -0.3706,0.14315 -0.1234,0.0479 -0.2468,0.0962 -0.3701,0.14469 -0.1233,0.0485 -0.2464,0.0972 -0.3694,0.14625 -0.123,0.0492 -0.2458,0.0986 -0.3685,0.14831 -0.1226,0.0495 -0.2451,0.0993 -0.3674,0.14934 -0.1225,0.0502 -0.2448,0.10067 -0.3669,0.15141 -0.1221,0.0507 -0.2441,0.10171 -0.3659,0.15297 -0.1219,0.0514 -0.2437,0.10308 -0.3654,0.15503 -0.1217,0.0518 -0.2433,0.10376 -0.3648,0.15606 -0.1212,0.0524 -0.2423,0.10515 -0.3633,0.15813 -0.1212,0.0529 -0.2423,0.10618 -0.3633,0.15968 -0.1207,0.0533 -0.2413,0.10687 -0.3617,0.16071 -0.1205,0.0542 -0.241,0.1086 -0.3612,0.1633 -0.1202,0.0545 -0.2403,0.10928 -0.3602,0.16433 -0.12,0.055 -0.2399,0.11032 -0.3597,0.16588 -0.1197,0.0557 -0.2392,0.1117 -0.3586,0.16795 -0.1193,0.0561 -0.2386,0.11239 -0.3576,0.16898 -0.1192,0.0567 -0.2382,0.11377 -0.3571,0.17105 -0.1188,0.0573 -0.2375,0.1148 -0.356,0.1726 -0.1185,0.0578 -0.2369,0.11583 -0.355,0.17415 -0.1182,0.0583 -0.2362,0.11687 -0.354,0.1757 -0.118,0.0588 -0.2358,0.1179 -0.3535,0.17725 -0.1176,0.0593 -0.2351,0.11894 -0.3524,0.1788 -0.1173,0.0598 -0.2345,0.11997 -0.3514,0.18035 -0.117,0.0604 -0.2338,0.12101 -0.3504,0.1819 -0.1166,0.0611 -0.2331,0.12239 -0.3493,0.18397 -0.1165,0.0614 -0.2327,0.12307 -0.3488,0.185 -0.116,0.0619 -0.2317,0.12411 -0.3473,0.18655 -0.1158,0.0626 -0.2313,0.12549 -0.3468,0.18862 -0.1154,0.063 -0.2306,0.12618 -0.3457,0.18966 -0.115,0.0635 -0.2299,0.12721 -0.3447,0.1912 -0.1147,0.0642 -0.2292,0.12859 -0.3436,0.19327 -0.1144,0.0645 -0.2286,0.12928 -0.3426,0.1943 -0.1141,0.0652 -0.2279,0.13066 -0.3416,0.19637 -0.1139,0.0655 -0.2275,0.13135 -0.3411,0.19741 -0.1133,0.0661 -0.2265,0.13238 -0.3395,0.19895 -0.113,0.0666 -0.2258,0.13342 -0.3385,0.20051 -0.1126,0.0673 -0.2251,0.13479 -0.3374,0.20257 -0.1123,0.0676 -0.2245,0.13548 -0.3364,0.2036 -0.1122,0.0681 -0.2241,0.13652 -0.3359,0.20516 -0.1117,0.0686 -0.2231,0.13755 -0.3344,0.2067 -0.1113,0.0692 -0.2224,0.13859 -0.3333,0.20826 -0.1107,0.0695 -0.2213,0.13928 -0.3317,0.20929 -0.1106,0.0702 -0.2211,0.14066 -0.3313,0.21136 -0.1103,0.0706 -0.2203,0.14134 -0.3302,0.21239 -0.1097,0.0712 -0.2193,0.14272 -0.3287,0.21445 -0.1095,0.0716 -0.2189,0.14342 -0.3281,0.21549 -0.1091,0.0721 -0.2179,0.14445 -0.3266,0.21704 -0.1087,0.0726 -0.2172,0.14549 -0.3256,0.2186 -0.1083,0.0731 -0.2165,0.14651 -0.3245,0.22014 -0.1078,0.0735 -0.2155,0.14721 -0.323,0.22117 -0.1077,0.0742 -0.2151,0.14859 -0.3224,0.22324 -0.1072,0.0745 -0.2141,0.14928 -0.3209,0.22428 -0.1068,0.075 -0.2135,0.15031 -0.3199,0.22583 -0.1063,0.0756 -0.2124,0.15134 -0.3183,0.22737 -0.1061,0.0759 -0.2121,0.15204 -0.3178,0.22841 -0.1057,0.0764 -0.2111,0.15307 -0.3163,0.22996 -0.1053,0.0769 -0.2103,0.15411 -0.3152,0.23151 -0.1048,0.0774 -0.2093,0.15514 -0.3137,0.23306 -0.1044,0.078 -0.2086,0.15618 -0.3126,0.23461 -0.1041,0.0783 -0.208,0.15687 -0.3116,0.23565 -0.1036,0.0788 -0.2069,0.1579 -0.3101,0.23719 -0.1032,0.0792 -0.2062,0.15859 -0.309,0.23823 -0.1029,0.0799 -0.2056,0.15997 -0.308,0.2403 -0.1024,0.0802 -0.2045,0.16065 -0.3065,0.24133 -0.102,0.0806 -0.2038,0.16134 -0.3054,0.24236 -0.1015,0.0811 -0.2028,0.16238 -0.3038,0.24391 -0.1012,0.0816 -0.2021,0.16342 -0.3029,0.24547 -0.1006,0.0821 -0.201,0.16445 -0.3012,0.24701 -0.1003,0.0825 -0.2004,0.16514 -0.3003,0.24805 -0.1,0.083 -0.1993,0.16617 -0.2986,0.24959 -0.099,0.0833 -0.1987,0.16687 -0.2977,0.25063 -0.099,0.0838 -0.198,0.1679 -0.2966,0.25218 -0.099,0.0844 -0.197,0.16894 -0.2951,0.25374 -0.098,0.0847 -0.1959,0.16962 -0.2935,0.25476 -0.098,0.085 -0.1952,0.17031 -0.2925,0.2558 -0.097,0.0856 -0.1942,0.17135 -0.2909,0.25735 -0.048,0.0432 -0.097,0.0864 -0.1447,0.12971 -0.313,0.22451 -0.6237,0.41679 -0.9369,0.64492 l -2.2351,2.345591 -51.5527,54.41051 c -2.6454,2.76119 -4.6729,4.07606 -7.8509,6.0013 -0.8229,0.49655 -1.6394,0.96309 -2.4499,1.39992 -0.8105,0.43683 -1.6149,0.84392 -2.4138,1.2206 -0.799,0.37668 -1.5926,0.72311 -2.3808,1.03921 -0.7882,0.3161 -1.5708,0.60172 -2.3492,0.8568 -0.7783,0.25507 -1.552,0.47972 -2.3213,0.67334 -0.452,0.11377 -0.8996,0.19437 -1.3487,0.2868 l -0.013,0.002 c -0.081,0.009 -0.1619,0.0172 -0.2429,0.0253 -0.081,0.008 -0.1622,0.0161 -0.2434,0.0238 -0.081,0.007 -0.1619,0.0147 -0.2429,0.0217 -0.081,0.007 -0.1626,0.0137 -0.2439,0.0202 -0.081,0.007 -0.1622,0.0127 -0.2434,0.0186 -0.081,0.006 -0.1626,0.0116 -0.2439,0.0171 -0.082,0.005 -0.1629,0.0103 -0.2445,0.015 -0.082,0.005 -0.1629,0.01 -0.2444,0.0139 -0.081,0.004 -0.1626,0.008 -0.2439,0.0119 -0.082,0.004 -0.1633,0.007 -0.2449,0.01 -0.082,0.003 -0.163,0.006 -0.2445,0.009 -0.082,0.003 -0.1629,0.005 -0.2444,0.007 -0.082,0.002 -0.1633,0.004 -0.2449,0.005 -0.082,0.002 -0.1633,0.003 -0.245,0.004 -0.082,8e-4 -0.1629,10e-4 -0.2444,0.002 -0.082,5.3e-4 -0.1633,5.3e-4 -0.245,5.3e-4 -0.082,-2.4e-4 -0.1633,-7.9e-4 -0.2449,-0.002 -0.082,-7.9e-4 -0.163,-0.002 -0.2444,-0.003 -0.082,-10e-4 -0.1633,-0.003 -0.245,-0.005 -0.082,-0.002 -0.1633,-0.004 -0.2449,-0.006 -0.082,-0.002 -0.163,-0.005 -0.2445,-0.008 -0.082,-0.003 -0.1629,-0.007 -0.2444,-0.0103 -0.082,-0.004 -0.163,-0.007 -0.2444,-0.0114 -0.082,-0.004 -0.163,-0.009 -0.2445,-0.0134 -0.081,-0.005 -0.1626,-0.01 -0.2439,-0.015 -0.081,-0.005 -0.1626,-0.0107 -0.2439,-0.0165 -0.081,-0.006 -0.1626,-0.0118 -0.2439,-0.0181 -0.081,-0.006 -0.1623,-0.0131 -0.2434,-0.0202 -0.081,-0.007 -0.1623,-0.0138 -0.2434,-0.0212 -0.081,-0.007 -0.1623,-0.0152 -0.2434,-0.0233 -0.081,-0.008 -0.1619,-0.0166 -0.2429,-0.0253 -0.081,-0.008 -0.1619,-0.0173 -0.2428,-0.0263 -0.081,-0.009 -0.1617,-0.0187 -0.2424,-0.0284 -0.081,-0.01 -0.1613,-0.0197 -0.2418,-0.03 -0.081,-0.0102 -0.1613,-0.0207 -0.2419,-0.0315 -0.081,-0.0107 -0.1609,-0.0218 -0.2413,-0.0331 -0.081,-0.0114 -0.161,-0.0231 -0.2413,-0.0351 -0.08,-0.0118 -0.1603,-0.0238 -0.2403,-0.0362 -0.08,-0.0125 -0.1603,-0.0252 -0.2403,-0.0382 -0.08,-0.013 -0.1603,-0.0263 -0.2403,-0.0398 -0.08,-0.0135 -0.1596,-0.0273 -0.2393,-0.0413 -0.08,-0.0142 -0.1596,-0.0287 -0.2393,-0.0434 -0.057,-0.0104 -0.1133,-0.0209 -0.17,-0.0315 -0.079,-0.0151 -0.1589,-0.0304 -0.2382,-0.046 -0.079,-0.0156 -0.1586,-0.0314 -0.2377,-0.0475 -0.079,-0.0161 -0.1586,-0.0325 -0.2377,-0.0491 -0.079,-0.0166 -0.1579,-0.0335 -0.2367,-0.0506 -0.079,-0.0173 -0.1575,-0.0349 -0.2362,-0.0527 -0.079,-0.0177 -0.1572,-0.0356 -0.2356,-0.0537 -0.079,-0.0183 -0.1572,-0.0369 -0.2357,-0.0558 -0.078,-0.0189 -0.1565,-0.038 -0.2346,-0.0574 -0.078,-0.0194 -0.1558,-0.039 -0.2335,-0.0589 -0.078,-0.0199 -0.1559,-0.04 -0.2336,-0.0605 -0.078,-0.0204 -0.1555,-0.0411 -0.2331,-0.062 -0.077,-0.0209 -0.1548,-0.0421 -0.232,-0.0636 -0.077,-0.0214 -0.1545,-0.0431 -0.2315,-0.0651 -0.077,-0.022 -0.1541,-0.0442 -0.231,-0.0667 -0.077,-0.0226 -0.1534,-0.0456 -0.23,-0.0687 -0.077,-0.023 -0.1531,-0.0462 -0.2294,-0.0698 -0.076,-0.0237 -0.1528,-0.0476 -0.2289,-0.0718 -0.076,-0.024 -0.1521,-0.0483 -0.2279,-0.0729 -0.076,-0.0247 -0.1514,-0.0497 -0.2269,-0.0749 -0.076,-0.0251 -0.1514,-0.0504 -0.2269,-0.076 -0.075,-0.0257 -0.1503,-0.0518 -0.2253,-0.078 -0.075,-0.0261 -0.1503,-0.0524 -0.2253,-0.0791 -0.075,-0.0266 -0.1493,-0.0535 -0.2237,-0.0806 -0.075,-0.0273 -0.149,-0.0549 -0.2233,-0.0827 -0.074,-0.0276 -0.1483,-0.0556 -0.2222,-0.0837 -0.074,-0.0283 -0.1479,-0.0569 -0.2217,-0.0858 -0.074,-0.0287 -0.1472,-0.0576 -0.2206,-0.0868 -0.073,-0.0292 -0.1466,-0.0587 -0.2197,-0.0884 -0.073,-0.0297 -0.1462,-0.0597 -0.2191,-0.0899 -0.073,-0.0302 -0.1452,-0.0607 -0.2175,-0.0915 -0.072,-0.0308 -0.1449,-0.0618 -0.2171,-0.093 -0.072,-0.0311 -0.1441,-0.0624 -0.216,-0.094 -0.072,-0.0318 -0.1435,-0.0638 -0.2149,-0.0961 -0.072,-0.0321 -0.1428,-0.0645 -0.214,-0.0971 -0.071,-0.0328 -0.1424,-0.0659 -0.2134,-0.0992 -0.071,-0.0332 -0.1414,-0.0666 -0.2119,-0.10025 -0.07,-0.0337 -0.1407,-0.0676 -0.2108,-0.1018 -0.07,-0.034 -0.1401,-0.0683 -0.2098,-0.10284 -0.07,-0.0347 -0.1397,-0.0697 -0.2093,-0.1049 -0.069,-0.0351 -0.1387,-0.0704 -0.2078,-0.10594 -0.069,-0.0356 -0.1379,-0.0714 -0.2067,-0.10749 -0.069,-0.0359 -0.1373,-0.0721 -0.2056,-0.10851 -0.068,-0.0366 -0.1367,-0.0735 -0.2047,-0.11059 -0.068,-0.037 -0.1356,-0.0742 -0.2031,-0.11162 -0.065,-0.0363 -0.1304,-0.0728 -0.1953,-0.10956 -0.718,-0.53816 -1.4597,-1.06859 -2.1415,-1.61954 -1.2336,-0.99689 -2.401,-2.01843 -3.4788,-3.07991 -0.5389,-0.53074 -1.0557,-1.07181 -1.5467,-1.62419 -0.491,-0.55239 -0.9562,-1.11627 -1.3932,-1.69396 -0.437,-0.57768 -0.8456,-1.16895 -1.2227,-1.7756 -0.3771,-0.60665 -0.7228,-1.22882 -1.034,-1.8681 -0.3112,-0.63928 -0.5881,-1.29589 -0.8274,-1.97146 -0.2392,-0.67556 -0.4411,-1.37014 -0.6025,-2.08566 -0.024,-0.10704 -0.031,-0.22275 -0.054,-0.33073 -0.1203,-0.58209 -0.2243,-1.17225 -0.2899,-1.78283 -0.01,-0.0587 -0.012,-0.11747 -0.017,-0.17622 v -0.0532 c -0.01,-0.0863 -0.014,-0.17378 -0.021,-0.26096 0,-0.0288 0,-0.0575 -0.01,-0.0863 0,-0.0668 -0.01,-0.13366 -0.013,-0.20051 v -0.016 -0.0326 c -0.02,-0.37978 -0.029,-0.76558 -0.032,-1.15445 v -0.008 c 0,-0.15489 -0.022,-0.29957 -0.019,-0.4563 0.012,-0.8064 0.071,-1.63709 0.1793,-2.49442 0.1083,-0.85734 0.2663,-1.74114 0.4765,-2.65307 0.2102,-0.91194 0.6477,-2.34963 0.9658,-3.31982 0.4409,-1.36166 1.4855,-3.14953 2.4169,-4.28489 0.438,-0.53896 0.9996,-1.1105 1.5105,-1.62625 0.511,-0.51576 1.0292,-1.00486 1.5555,-1.46555 0.5262,-0.46068 1.0607,-0.8931 1.603,-1.29604 0.5423,-0.40294 1.0925,-0.77628 1.6516,-1.1188 0.559,-0.34252 1.1266,-0.65437 1.7032,-0.93379 0.5766,-0.27942 1.1621,-0.52637 1.757,-0.74001 0.5695,-0.20451 1.1489,-0.37442 1.7358,-0.51624 0.036,-0.007 0.071,-0.0149 0.107,-0.0222 0.063,-0.0129 0.126,-0.0255 0.1891,-0.0377 0.036,-0.007 0.072,-0.0135 0.1075,-0.0202 0.1674,-0.0361 0.3386,-0.0585 0.5075,-0.0894 0.049,-0.008 0.097,-0.0157 0.1462,-0.0233 0.064,-0.01 0.1274,-0.0193 0.1912,-0.0284 0.064,-0.009 0.1275,-0.0182 0.1912,-0.0269 0.064,-0.009 0.1275,-0.0168 0.1912,-0.0248 0.064,-0.008 0.1278,-0.0155 0.1918,-0.0227 0.064,-0.007 0.1281,-0.0145 0.1922,-0.0212 0.064,-0.007 0.1281,-0.0134 0.1922,-0.0196 0.064,-0.006 0.1282,-0.0117 0.1923,-0.0171 0.064,-0.006 0.1281,-0.0106 0.1922,-0.0155 0.064,-0.005 0.1285,-0.01 0.1928,-0.0139 0.064,-0.004 0.1284,-0.008 0.1927,-0.0119 0.064,-0.004 0.1285,-0.007 0.1928,-0.01 0.064,-0.003 0.1288,-0.006 0.1932,-0.008 0.064,-0.002 0.1285,-0.004 0.1928,-0.006 0.064,-0.002 0.1288,-0.003 0.1933,-0.004 0.064,-10e-4 0.1285,-0.002 0.1927,-0.003 0.064,-5.3e-4 0.1289,-5.3e-4 0.1933,-5.3e-4 0.064,3e-5 0.1288,2.6e-4 0.1932,0.001 0.064,7.9e-4 0.1289,0.002 0.1933,0.003 0.061,10e-4 0.1209,0.003 0.1814,0.005 l 0.011,5.3e-4 h 5e-4 c 8e-4,2e-5 0,-3e-5 0,0 0.146,0.007 0.2914,0.0124 0.4372,0.0186 0.046,0.002 0.092,0.005 0.1385,0.008 0.018,0.001 0.036,0.002 0.055,0.004 0.1362,0.007 0.2726,0.0147 0.4108,0.0295 0.037,0.003 0.075,0.006 0.1122,0.01 0.016,0.002 0.032,0.003 0.049,0.005 0.6609,0.0763 1.3318,0.18747 2.0138,0.33951 0.6974,0.15547 1.4058,0.35127 2.126,0.58859 0.7201,0.23733 1.4515,0.51581 2.1952,0.83768 0.7436,0.32186 1.4992,0.68697 2.267,1.09605 0.049,0.0258 0.099,0.0596 0.1478,0.0858 0.7209,0.38851 1.4504,0.80789 2.1932,1.27538 l -21.0707,18.84803 c 0.347,0.63188 0.5646,0.7768 0.9674,1.26576 0.015,0.0138 0.3025,0.32393 0.3175,0.33763 0.049,0.0459 0.099,0.0915 0.1483,0.13695 0.05,0.0457 0.1,0.0912 0.1498,0.13642 0.05,0.045 0.1007,0.0898 0.1514,0.13436 0.051,0.0447 0.1014,0.0891 0.1525,0.13333 0.051,0.0443 0.1024,0.0884 0.154,0.13229 0.052,0.0438 0.1035,0.0874 0.1555,0.13074 0.052,0.0435 0.1042,0.0867 0.1566,0.12971 0.052,0.0429 0.1049,0.0857 0.1576,0.12815 0.053,0.0424 0.1059,0.0846 0.1592,0.12661 0.053,0.0421 0.1069,0.0839 0.1607,0.12558 0.054,0.0416 0.1076,0.0829 0.1617,0.12402 0.054,0.0412 0.1087,0.0822 0.1633,0.12299 0.055,0.0407 0.1094,0.0812 0.1644,0.12144 0.055,0.0402 0.11,0.0802 0.1653,0.11989 0.055,0.0399 0.1111,0.0795 0.167,0.11885 0.056,0.0392 0.1117,0.0781 0.1679,0.11679 0.056,0.039 0.1125,0.0777 0.169,0.11627 0.057,0.0383 0.1131,0.0764 0.17,0.11421 0.057,0.038 0.1142,0.0757 0.1716,0.11317 0.057,0.0373 0.1148,0.0743 0.1726,0.11111 0.058,0.0369 0.1155,0.0736 0.1736,0.11007 0.058,0.0366 0.1166,0.0729 0.1752,0.10903 0.058,0.0359 0.1169,0.0716 0.1757,0.10697 0.059,0.0354 0.118,0.0705 0.1772,0.10542 0.059,0.0351 0.1187,0.0698 0.1783,0.10439 0.059,0.0345 0.119,0.0688 0.1788,0.10284 0.06,0.0338 0.1201,0.0674 0.1804,0.10077 0.06,0.0335 0.1207,0.0667 0.1813,0.0997 0.061,0.033 0.1211,0.0657 0.1819,0.0982 0.061,0.0325 0.1222,0.0647 0.1835,0.0966 0.061,0.0319 0.1225,0.0636 0.184,0.0951 0.062,0.0314 0.1235,0.0626 0.1855,0.0935 0.062,0.0309 0.1239,0.0616 0.186,0.092 0.062,0.0304 0.1246,0.0606 0.1871,0.0904 0.062,0.0299 0.1252,0.0595 0.1881,0.0889 0.063,0.0294 0.1256,0.0585 0.1886,0.0873 0.063,0.0287 0.1263,0.0571 0.1897,0.0853 0.063,0.0283 0.1269,0.0564 0.1906,0.0842 0.064,0.0278 0.1277,0.0554 0.1918,0.0827 0.064,0.0272 0.128,0.054 0.1922,0.0806 0.064,0.0266 0.1287,0.053 0.1933,0.0791 0.064,0.0261 0.129,0.0519 0.1938,0.0775 0.065,0.0256 0.1294,0.0509 0.1943,0.076 0.065,0.0251 0.1304,0.0499 0.1958,0.0744 0.065,0.0246 0.1305,0.0489 0.1959,0.0729 0.066,0.024 0.1315,0.0478 0.1974,0.0713 0.066,0.0234 0.1315,0.0464 0.1974,0.0692 0.066,0.0228 0.1322,0.0454 0.1984,0.0677 0.066,0.0223 0.1325,0.0444 0.199,0.0661 0.066,0.0217 0.1328,0.043 0.1994,0.0641 0.067,0.0213 0.1336,0.0423 0.2005,0.063 0.067,0.0206 0.134,0.0409 0.2011,0.061 0.067,0.0201 0.1342,0.0399 0.2015,0.0594 0.067,0.0194 0.135,0.0385 0.2026,0.0574 0.067,0.0191 0.1349,0.0378 0.2025,0.0563 0.068,0.0184 0.1353,0.0365 0.2031,0.0543 0.068,0.0177 0.136,0.0351 0.2042,0.0522 0.068,0.0173 0.136,0.0344 0.2041,0.0512 0.068,0.0166 0.1367,0.033 0.2051,0.0491 0.068,0.0159 0.1371,0.0316 0.2057,0.047 0.068,0.0156 0.137,0.031 0.2057,0.046 0.069,0.0149 0.1374,0.0296 0.2062,0.0439 0.069,0.0144 0.1377,0.0285 0.2067,0.0424 0.069,0.0137 0.1381,0.0272 0.2072,0.0403 0.069,0.0132 0.1384,0.0261 0.2077,0.0388 0.069,0.0127 0.1388,0.0251 0.2083,0.0372 0.069,0.012 0.1388,0.0237 0.2082,0.0351 0.069,0.0115 0.1392,0.0227 0.2088,0.0336 0.07,0.0108 0.1392,0.0213 0.2088,0.0315 0.07,0.0103 0.1395,0.0203 0.2093,0.03 0.07,0.01 0.1398,0.0192 0.2098,0.0284 0.07,0.009 0.1398,0.0179 0.2098,0.0264 0.07,0.009 0.1402,0.0168 0.2103,0.0248 0.07,0.008 0.1402,0.0154 0.2103,0.0227 0.07,0.007 0.1406,0.0144 0.2109,0.0212 0.07,0.007 0.1405,0.0134 0.2108,0.0196 0.07,0.006 0.1406,0.012 0.2109,0.0176 0.07,0.006 0.1408,0.011 0.2113,0.016 0.07,0.005 0.1409,0.01 0.2114,0.0139 0.071,0.004 0.1412,0.009 0.2119,0.0124 0.07,0.004 0.1408,0.008 0.2113,0.0109 0.071,0.003 0.1412,0.006 0.2119,0.009 0.071,0.003 0.1412,0.005 0.2119,0.007 0.071,0.002 0.1412,0.004 0.2118,0.005 0.071,0.002 0.1413,0.003 0.2119,0.004 0.071,8e-4 0.1412,0.001 0.2119,0.002 0.071,2.7e-4 0.1412,2.7e-4 0.2118,0 0.071,-2.2e-4 0.1413,-7.9e-4 0.2119,-0.002 0.071,-10e-4 0.1413,-0.002 0.2119,-0.004 0.071,-10e-4 0.1413,-0.003 0.2119,-0.005 l 0.048,-0.002 c 0.071,-0.002 0.1409,-0.005 0.2113,-0.008 0.071,-0.003 0.1413,-0.006 0.2119,-0.009 0.071,-0.003 0.1413,-0.007 0.2119,-0.0109 0.071,-0.004 0.1409,-0.008 0.2113,-0.0129 0.071,-0.005 0.141,-0.01 0.2114,-0.015 0.071,-0.005 0.1409,-0.0104 0.2113,-0.016 0.07,-0.006 0.1406,-0.0121 0.2109,-0.0186 0.07,-0.006 0.1406,-0.0128 0.2108,-0.0196 0.07,-0.007 0.1403,-0.0145 0.2103,-0.0222 0.07,-0.007 0.1403,-0.0152 0.2104,-0.0233 0.07,-0.008 0.1402,-0.0166 0.2103,-0.0253 0.07,-0.009 0.1399,-0.0176 0.2098,-0.0269 0.07,-0.009 0.1399,-0.019 0.2098,-0.0289 0.07,-0.01 0.1396,-0.02 0.2093,-0.0305 0.07,-0.0106 0.1392,-0.0214 0.2088,-0.0326 0.07,-0.0111 0.1392,-0.0224 0.2087,-0.0341 0.07,-0.0116 0.1389,-0.0235 0.2083,-0.0356 0.069,-0.0123 0.1386,-0.0249 0.2077,-0.0377 0.069,-0.0128 0.1382,-0.0259 0.2073,-0.0393 0.069,-0.0133 0.1382,-0.0269 0.2072,-0.0408 0.069,-0.014 0.1379,-0.0283 0.2067,-0.0429 0.069,-0.0145 0.1375,-0.0293 0.2062,-0.0444 0.069,-0.0152 0.1372,-0.0307 0.2056,-0.0465 0.069,-0.0156 0.1369,-0.0314 0.2052,-0.0475 0.068,-0.0164 0.1365,-0.0331 0.2046,-0.0501 0.068,-0.0168 0.1365,-0.0338 0.2047,-0.0512 0.068,-0.0175 0.1358,-0.0352 0.2036,-0.0532 0.068,-0.018 0.1355,-0.0362 0.2031,-0.0548 0.068,-0.0185 0.1351,-0.0373 0.2025,-0.0563 0.068,-0.0192 0.1348,-0.0386 0.2021,-0.0584 0.067,-0.0197 0.1345,-0.0397 0.2015,-0.06 0.067,-0.0202 0.1338,-0.0407 0.2005,-0.0615 0.067,-0.0208 0.1338,-0.0417 0.2005,-0.063 0.067,-0.0214 0.1331,-0.0431 0.1995,-0.0651 0.066,-0.0219 0.1324,-0.0442 0.1985,-0.0667 0.066,-0.0225 0.1324,-0.0452 0.1984,-0.0682 0.066,-0.023 0.1317,-0.0462 0.1974,-0.0698 0.066,-0.0237 0.131,-0.0476 0.1964,-0.0718 0.066,-0.024 0.131,-0.0483 0.1963,-0.0729 0.065,-0.0247 0.13,-0.0497 0.1949,-0.0749 0.065,-0.0252 0.13,-0.0507 0.1948,-0.0765 0.053,-0.0214 0.1055,-0.0429 0.1581,-0.0646 0.4688,-0.26168 0.9326,-0.50924 1.4092,-0.7922 16.5073,-12.32467 30.3277,-30.09048 44.7668,-45.44123 -0.5483,-0.96867 -1.1302,-1.91669 -1.7446,-2.84375 -0.6144,-0.92707 -1.2611,-1.833031 -1.9389,-2.717151 -0.6779,-0.88412 -1.3869,-1.74656 -2.1255,-2.58641 -0.7385,-0.83984 -1.5066,-1.65729 -2.3032,-2.45153 -0.7966,-0.79423 -1.6219,-1.56523 -2.4738,-2.31252 -0.8518,-0.74729 -1.7305,-1.47088 -2.6349,-2.16989 -0.9045,-0.69901 -1.8347,-1.37373 -2.789,-2.02313 -0.9543,-0.6494 -1.9327,-1.27327 -2.9342,-1.87172 -1.0015,-0.59846 -2.0257,-1.17155 -3.0716,-1.71773 -1.046,-0.54618 -2.1137,-1.06547 -3.2014,-1.55804 -1.0877,-0.49257 -2.1956,-0.95816 -3.3223,-1.39578 -1.1267,-0.43763 -2.2724,-0.84752 -3.4354,-1.22887 -1.1631,-0.38134 -2.3437,-0.73408 -3.5404,-1.05781 -1.1966,-0.32374 -2.4094,-0.61836 -3.637,-0.88315 -1.2275,-0.2648 -2.4696,-0.49984 -3.7253,-0.70435 -1.2558,-0.20452 -2.5253,-0.37852 -3.8065,-0.52142 -1.2813,-0.1429 -2.5743,-0.25491 -3.8783,-0.33486 -1.304,-0.08 -2.6188,-0.12799 -3.9429,-0.14366 z"
             inkscape:connector-curvature="0"
             sodipodi:nodetypes="scsssssssssssccsscscscccsccscscccccssccsssscccccccccccccccccccccccccccccccccccccccccccccccccccccccccccccccccccccccccccccccccccccccccccccccccccccccccccccccccccccccccccccsccccccccscccccscccsccsscccscsscssccscccsssscsscccccccccccccccccccccccccccccccccccccccccccccccccccccccccccccccccccccccccccccccccccccccccccccccccccccccccccccccccccccccccccccccccccccccccccccccccccccccccccccccccccccccccccccccccccccccccccccccccccccccccccccccccccccccccccccccccccccccccccccccccccccccccccccccccccccccccccccccccscccscccccccccccccccccccccccccccccccccccccccccccccccccccccccccccccccccccccccccccccccccccccccccccccsccsscccccccccccccsccccccsccccccccccccccccccccccccccccccccccccscsccccccccccccccccccccccccccccccccccccccccccccccccccccccccccccccccccccccccccccccccccccccccccscccccccccccccccccccccccccccccccccccccccccccccccccsccssssscscssssssss" />
          <g
             id="g1366">
            <rect
               inkscape:export-ydpi="37.926937"
               inkscape:export-xdpi="37.926937"
               ry="2.7781255"
               y="-204.31494"
               x="2258.9385"
               height="11.90625"
               width="35.163097"
               id="rect1350"
               style="fill:#4c4f6a;fill-opacity:1;stroke-width:0.22133;stroke-linecap:round;stroke-linejoin:round" />
            <rect
               ry="2.7781255"
               y="-203.25659"
               x="2161.1663"
               height="11.90625"
               width="35.163097"
               id="rect1352"
               style="fill:#e16666;fill-opacity:1;stroke-width:0.22133;stroke-linecap:round;stroke-linejoin:round" />
            <rect
               style="fill:#e16666;fill-opacity:1;stroke-width:0.22133;stroke-linecap:round;stroke-linejoin:round"
               id="rect1354"
               width="35.163097"
               height="11.90625"
               x="2209.071"
               y="-145.76508"
               ry="2.7781255" />
            <rect
               style="fill:#eaf6f3;fill-opacity:1;stroke-width:0.22133;stroke-linecap:round;stroke-linejoin:round"
               id="rect1356"
               width="35.163097"
               height="11.90625"
               x="2153.677"
               y="-146.6178"
               ry="2.7781255" />
            <rect
               style="fill:#4c4f6a;fill-opacity:1;stroke-width:0.22133;stroke-linecap:round;stroke-linejoin:round"
               id="rect1358"
               width="35.163097"
               height="11.90625"
               x="2264.458"
               y="-131.34525"
               ry="2.7781255" />
            <rect
               style="fill:#eaf6f3;fill-opacity:1;stroke-width:0.22133;stroke-linecap:round;stroke-linejoin:round"
               id="rect1360"
               width="35.163097"
               height="11.90625"
               x="2208.4292"
               y="-183.94189"
               ry="2.7781255" />
            <rect
               ry="2.7781255"
               y="-234.60156"
               x="2200.7573"
               height="11.90625"
               width="35.163097"
               id="rect1362"
               style="fill:#4c4f6a;fill-opacity:1;stroke-width:0.22133;stroke-linecap:round;stroke-linejoin:round" />
            <rect
               style="fill:#e16666;fill-opacity:1;stroke-width:0.22133;stroke-linecap:round;stroke-linejoin:round"
               id="rect1364"
               width="35.163097"
               height="11.90625"
               x="2254.1758"
               y="-166.74384"
               ry="2.7781255" />
          </g>
          <path
             sodipodi:nodetypes="scsssssssssssccsscscscccsccscscccccssccsssscccccccccccccccccccccccccccccccccccccccccccccccccccccccccccccccccccccccccccccccccccccccccccccccccccccccccccccccccccccccccccccsccccccccscccccscccsccsscccscsscssccscccsssscsscccccccccccccccccccccccccccccccccccccccccccccccccccccccccccccccccccccccccccccccccccccccccccccccccccccccccccccccccccccccccccccccccccccccccccccccccccccccccccccccccccccccccccccccccccccccccccccccccccccccccccccccccccccccccccccccccccccccccccccccccccccccccccccccccccccccccccccccccscccscccccccccccccccccccccccccccccccccccccccccccccccccccccccccccccccccccccccccccccccccccccccccccccsccsscccccccccccccsccccccsccccccccccccccccccccccccccccccccccccscsccccccccccccccccccccccccccccccccccccccccccccccccccccccccccccccccccccccccccccccccccccccccccscccccccccccccccccccccccccccccccccccccccccccccccccsccssssscscssssssss"
             inkscape:connector-curvature="0"
             d="m 2226.4,-124.12847 c -1.3242,-0.0157 -2.6578,10e-4 -3.9993,0.0512 -1.3415,0.0499 -2.6907,0.13323 -4.0467,0.25011 -1.3561,0.11688 -2.7191,0.26753 -4.0871,0.45269 -1.368,0.18515 -2.7409,0.40462 -4.1182,0.65939 -1.3772,0.25477 -2.7586,0.54451 -4.1423,0.87023 -1.3838,0.32572 -2.7703,0.68721 -4.1579,1.0852 -1.3876,0.398 -2.776,0.83271 -4.1646,1.30432 -1.3886,0.47161 -2.7771,0.98048 -4.1641,1.52704 -1.387,0.54655 -2.7726,1.13054 -4.1553,1.75338 -1.3827,0.62283 -2.7626,1.28444 -4.1382,1.98489 -1.3757,0.70045 -2.7476,1.44011 -4.1135,2.2195 -1.3659,0.77939 -2.7259,1.59858 -4.0793,2.45825 -1.3535,0.85967 -2.7002,1.75984 -4.0385,2.70113 -3.3243,2.11236 -6.0836,4.96685 -8.5194,7.676011 -1.4354,1.60061 -2.7954,3.22538 -4.0783,4.87361 -1.2829,1.64822 -2.4887,3.31993 -3.6158,5.01416 -1.1271,1.69424 -2.1755,3.41092 -3.1435,5.14956 -0.5447,0.9783 -1.0041,1.97943 -1.4976,2.97139 -0.3835,0.77095 -0.8114,1.53038 -1.1637,2.30942 -0.8057,1.78142 -1.5293,3.5838 -2.1694,5.40639 -0.6401,1.82259 -1.1969,3.66516 -1.6681,5.52731 -0.2261,0.89355 -0.4298,1.79203 -0.6165,2.69441 -0.01,0.0379 -0.018,0.0753 -0.026,0.11317 -0.1928,0.94066 -0.3641,1.88648 -0.5137,2.83652 -0.1495,0.95005 -0.2775,1.90468 -0.3834,2.86391 -0.1059,0.95923 -0.1898,1.92308 -0.2517,2.8913 -0.062,0.96821 -0.1014,1.94065 -0.1188,2.91765 -0.017,0.97699 -0.012,1.95843 0.015,2.944 0.028,0.98558 0.077,1.97538 0.1498,2.96933 0.073,0.99395 0.1684,1.992 0.2868,2.99413 0.1184,1.00213 0.2598,2.00832 0.4243,3.01842 0.1219,0.74879 0.27,1.50209 0.4175,2.25516 0.052,0.26282 0.091,0.5237 0.1458,0.78704 0.2504,1.20827 0.6021,2.43253 0.9188,3.65145 0.2168,0.83477 0.3812,1.661 0.6294,2.50062 0.6105,2.06564 1.316,4.14603 2.1182,6.23993 0.8022,2.09391 1.7008,4.20153 2.698,6.3221 0.9972,2.12056 2.0928,4.254 3.2882,6.39961 1.2323,1.91059 2.4852,3.7840004 3.7646,5.6130904 1.2795,1.82909 2.5854,3.61378 3.9233,5.34644 1.3379,1.73267003 2.7079,3.41353003 4.1155,5.03484 1.4076,1.62131 2.8528,3.18323 4.3413,4.67827 1.4886,1.49503 3.0206,2.9229096 4.6013,4.2767396 0.4152,0.35562 0.843,0.69192 1.2651,1.03714 0.051,0.0359 0.1012,0.0717 0.1519,0.10749 0.1023,0.0723 0.2048,0.14427 0.3075,0.21601 0.1026,0.0718 0.2055,0.14323 0.3085,0.21446 0.103,0.0712 0.2061,0.1422 0.3095,0.2129 0.1035,0.0705 0.2072,0.14083 0.3111,0.21084 0.1037,0.0702 0.2076,0.14014 0.3116,0.20981 0.1041,0.0697 0.2083,0.1391 0.3127,0.20826 0.1043,0.069 0.2089,0.13772 0.3136,0.20618 0.1048,0.0686 0.2097,0.13704 0.3147,0.20516 0.1049,0.068 0.21,0.13566 0.3153,0.20309 0.1054,0.0675 0.211,0.13463 0.3167,0.20154 0.1058,0.0669 0.2117,0.13359 0.3178,0.19998 0.106,0.0664 0.2121,0.13257 0.3184,0.19844 0.1064,0.0659 0.2131,0.13153 0.3198,0.19689 0.1067,0.0654 0.2135,0.13049 0.3204,0.19533 0.1069,0.0647 0.2142,0.12912 0.3215,0.19328 0.1073,0.0644 0.2148,0.12843 0.3224,0.19223 0.1075,0.0637 0.2152,0.12705 0.323,0.19017 0.108,0.0631 0.2162,0.12602 0.3245,0.18862 0.1082,0.0626 0.2166,0.12499 0.3251,0.18707 0.1085,0.0621 0.2172,0.12395 0.3261,0.18552 0.1087,0.0614 0.2175,0.12257 0.3266,0.18345 0.1092,0.0611 0.2186,0.12189 0.328,0.18242 0.1095,0.0604 0.219,0.12051 0.3287,0.18035 0.1097,0.0599 0.2197,0.11947 0.3298,0.1788 0.1099,0.0592 0.2199,0.1181 0.3302,0.17673 0.1102,0.0587 0.2206,0.11707 0.3312,0.17518 0.1106,0.0583 0.2214,0.11638 0.3323,0.17415 0.1108,0.0575 0.2217,0.11466 0.3328,0.17157 0.111,0.0571 0.2223,0.11397 0.3338,0.17053 0.1115,0.0564 0.2231,0.11259 0.3349,0.16847 0.1115,0.0559 0.2233,0.11156 0.3353,0.16691 0.1119,0.0554 0.2239,0.11053 0.3359,0.16537 0.1124,0.0547 0.2248,0.10915 0.3375,0.16329 0.1124,0.0542 0.2248,0.10812 0.3374,0.16175 0.1129,0.0537 0.2259,0.10709 0.3391,0.1602 0.1128,0.0532 0.2258,0.10605 0.3389,0.15864 0.1133,0.0525 0.2266,0.10468 0.34,0.15658 0.1136,0.0518 0.2273,0.1033 0.3411,0.15452 0.1137,0.0514 0.2276,0.1026 0.3416,0.15347 0.1141,0.0508 0.2283,0.10124 0.3426,0.15142 0.1142,0.0503 0.2287,0.1002 0.3432,0.14986 0.1144,0.0496 0.229,0.0988 0.3435,0.14779 0.1149,0.049 0.2298,0.0978 0.3448,0.14625 0.115,0.0485 0.23,0.0968 0.3452,0.14469 0.1151,0.0478 0.2304,0.0954 0.3457,0.14263 0.1155,0.0471 0.2311,0.094 0.3467,0.14056 0.1157,0.0468 0.2315,0.0933 0.3473,0.13953 0.116,0.0461 0.2321,0.0919 0.3483,0.13746 0.116,0.0454 0.232,0.0906 0.3483,0.13539 0.1164,0.0451 0.2328,0.0899 0.3493,0.13436 0.1166,0.0442 0.2334,0.0881 0.3503,0.13177 0.1168,0.0437 0.2336,0.0871 0.3505,0.13022 0.1169,0.0432 0.2342,0.0861 0.3514,0.12868 0.1169,0.0427 0.2342,0.085 0.3514,0.12712 0.1173,0.042 0.2347,0.0837 0.3524,0.12506 0.1177,0.0413 0.2356,0.0823 0.3535,0.12299 0.1176,0.0408 0.2354,0.0813 0.3535,0.12144 0.1179,0.0401 0.2359,0.0799 0.3538,0.11937 0.1184,0.0398 0.2367,0.0792 0.3552,0.11834 0.1184,0.0389 0.2369,0.0775 0.3555,0.11576 0.1184,0.0384 0.2369,0.0764 0.3554,0.1142 0.1189,0.0378 0.2378,0.0754 0.3567,0.11266 0.1188,0.0372 0.238,0.074 0.357,0.11058 0.1192,0.0365 0.2383,0.0726 0.3577,0.10853 0.1192,0.036 0.2386,0.0716 0.358,0.10697 0.1196,0.0354 0.2391,0.0706 0.3586,0.10541 0.1198,0.0348 0.2395,0.0692 0.3593,0.10336 0.1198,0.0341 0.2396,0.0678 0.3597,0.10128 0.1198,0.0335 0.2396,0.0668 0.3596,0.0997 0.1201,0.033 0.2404,0.0658 0.3607,0.0982 0.1204,0.0323 0.2408,0.0644 0.3613,0.0961 0.1203,0.0317 0.2407,0.063 0.3612,0.0941 0.1206,0.0311 0.2413,0.062 0.3622,0.0925 0.1207,0.0305 0.2414,0.0606 0.3623,0.0904 0.1208,0.0299 0.2417,0.0596 0.3627,0.0889 0.1211,0.0293 0.2422,0.0582 0.3633,0.0868 0.1212,0.0286 0.2425,0.0568 0.3638,0.0847 0.1212,0.028 0.2424,0.0558 0.3638,0.0832 0.1216,0.0275 0.2432,0.0547 0.3649,0.0816 0.1214,0.0267 0.2431,0.053 0.3648,0.0791 0.1215,0.0263 0.2431,0.0523 0.3647,0.078 0.1219,0.0255 0.244,0.0506 0.366,0.0754 0.1218,0.025 0.2437,0.0496 0.3658,0.0739 0.122,0.0244 0.2443,0.0485 0.3664,0.0724 0.1223,0.0237 0.2446,0.0472 0.367,0.0703 0.1222,0.023 0.2445,0.0458 0.3668,0.0682 0.1224,0.0225 0.2449,0.0447 0.3674,0.0667 0.1225,0.0218 0.2449,0.0434 0.3674,0.0646 0.1227,0.0211 0.2452,0.042 0.3679,0.0625 0.1228,0.0206 0.2456,0.041 0.3685,0.061 0.1228,0.0199 0.2456,0.0396 0.3685,0.0589 0.123,0.0194 0.2459,0.0386 0.3689,0.0574 0.123,0.0187 0.246,0.0372 0.369,0.0553 0.1232,0.018 0.2464,0.0358 0.3696,0.0532 0.123,0.0175 0.2462,0.0348 0.3694,0.0517 0.1234,0.0169 0.2466,0.0334 0.37,0.0496 0.1233,0.0163 0.2466,0.0324 0.3701,0.0481 0.1234,0.0156 0.2468,0.031 0.3705,0.046 0.1235,0.0149 0.2469,0.0296 0.3705,0.0439 0.1235,0.0143 0.2469,0.0282 0.3705,0.0419 0.1236,0.0138 0.2473,0.0272 0.371,0.0403 0.1236,0.0132 0.2473,0.0261 0.3711,0.0388 0.1237,0.0124 0.2476,0.0244 0.3715,0.0362 0.1238,0.0119 0.2476,0.0234 0.3715,0.0346 0.1238,0.0114 0.2477,0.0224 0.3716,0.0331 0.1238,0.0105 0.2476,0.0206 0.3715,0.0305 0.124,0.01 0.248,0.0196 0.3721,0.0289 0.124,0.009 0.248,0.0186 0.3721,0.0274 0.1241,0.009 0.2483,0.0172 0.3725,0.0253 0.124,0.008 0.2481,0.0158 0.3721,0.0233 0.1242,0.007 0.2484,0.0144 0.3726,0.0212 0.1242,0.007 0.2484,0.0134 0.3726,0.0196 0.1242,0.006 0.2484,0.012 0.3726,0.0176 0.1242,0.006 0.2484,0.011 0.3727,0.016 0.1243,0.005 0.2486,0.01 0.373,0.0139 0.1241,0.004 0.2484,0.008 0.3725,0.0119 0.1244,0.004 0.2488,0.007 0.3732,0.01 0.1243,0.003 0.2487,0.006 0.3732,0.008 0.1241,0.002 0.2482,0.004 0.3725,0.006 0.1243,0.002 0.2487,0.003 0.373,0.005 l 0.3732,0.003 c 0.1243,5.3e-4 0.2487,5.3e-4 0.3732,5.3e-4 0.1242,-3e-5 0.2486,-2.4e-4 0.373,-0.001 0.1243,-7.9e-4 0.2487,-0.002 0.3732,-0.004 0.1243,-0.001 0.2486,-0.003 0.373,-0.005 0.1243,-0.002 0.2484,-0.005 0.3727,-0.007 0.1242,-0.003 0.2487,-0.005 0.3731,-0.009 0.1243,-0.003 0.2486,-0.007 0.3731,-0.0103 0.1204,-0.004 0.2408,-0.008 0.3612,-0.0124 0.6966,-0.053 1.4057,-0.12354 2.1151,-0.19482 0.428,-0.043 0.8432,-0.0681 1.2758,-0.11782 1.3615,-0.15649 2.7468,-0.34659 4.1558,-0.57103 1.4092,-0.22443 2.8424,-0.48348 4.3006,-0.77773 1.4582,-0.29424 2.9408,-0.62368 4.4494,-0.9896 1.5086,-0.36592 3.0428,-0.76822 4.6032,-1.20768 1.5605,-0.43946 4.761,-1.43092 4.761,-1.43092 l 4.9811,-1.48518 c 0,0 2.3991,-0.80064 3.6727,-1.22111 1.2735,-0.42048 2.5773,-0.91475 3.9109,-1.48828 0.9267,-0.39864 1.8872,-0.88801 2.8431,-1.36529 0.4195,-0.20941 0.8226,-0.37386 1.2475,-0.59893 1.3937,-0.73808 2.8174,-1.56122 4.2715,-2.47531 1.4542,-0.91408 2.9391,-1.91944 4.454,-3.0209996 1.515,-1.10156 3.0599,-2.29926 4.6359,-3.59978 1.576,-1.30052 3.1831,-2.70379 4.8204,-4.21473 1.6373,-1.51093997 3.3054,-3.12991 5.0043,-4.86275 1.699,-1.73285 3.4286,-3.57918 5.1894,-5.5454 1.7608,-1.9662204 3.5524,-4.0521204 5.3754,-6.2631804 1.8229,-2.21107 3.6771,-4.5477 5.5624,-7.01508 1.8854,-2.46738 3.802,-5.06539 5.7501,-7.80056 1.948,-2.73517 3.9276,-5.60726 5.9386,-8.62169 2.011,-3.01444 4.0535,-6.17125 6.1278,-9.47643 2.0743,-3.30517 4.1801,-6.75891 6.3179,-10.36629 2.1379,-3.60738 4.3077,-7.36869 6.5093,-11.28975 1.0193,-1.66014 2.0809,-3.25499 3.1833,-4.78782 1.1024,-1.53283 2.2456,-3.00357 3.4277,-4.4142 1.182,-1.41063 2.4028,-2.7615 3.6612,-4.05505 1.2585,-1.29355 2.5547,-2.52982 3.8861,-3.7114 1.3315,-1.18159 2.6984,-2.30852 4.0995,-3.38326 1.4011,-1.07473 2.8361,-2.09709 4.3036,-3.07009 1.4675,-0.97301 2.9674,-1.89657 4.4979,-2.77296 1.5305,-0.87639 3.0918,-1.70591 4.6819,-2.49081 1.5902,-0.78489 3.209,-1.525121 4.8555,-2.223631 1.6465,-0.69851 3.3204,-1.35525 5.0199,-1.97249 1.6995,-0.61725 3.4247,-1.19524 5.1738,-1.73633 1.7492,-0.54109 3.5226,-1.04509 5.3181,-1.51515 1.7954,-0.47006 3.6133,-0.90586 5.4518,-1.31 1.8385,-0.40414 3.6973,-0.77649 5.5754,-1.11983 1.8781,-0.34334 3.7756,-0.65802 5.6901,-0.94568 1.9144,-0.28765 3.846,-0.54839 5.7934,-0.78548 -2.2163,-1.26253 -4.429,-2.43811 -6.6388,-3.52588 -0.1941,-0.0955 -0.3873,-0.16939 -0.5814,-0.26355 l -0.027,-0.014 c -0.1166,-0.0611 -0.2334,-0.12188 -0.3504,-0.18242 -0.1169,-0.0606 -0.2341,-0.12084 -0.3514,-0.18087 -0.1171,-0.0599 -0.2344,-0.11946 -0.3519,-0.1788 -0.1175,-0.0595 -0.2352,-0.11877 -0.3529,-0.17777 -0.1179,-0.059 -0.2359,-0.11774 -0.354,-0.17621 -0.1182,-0.0585 -0.2366,-0.11671 -0.355,-0.17467 -0.1184,-0.0578 -0.2369,-0.11533 -0.3556,-0.1726 -0.1188,-0.0575 -0.2379,-0.11464 -0.357,-0.17156 -0.1189,-0.0568 -0.238,-0.11327 -0.3571,-0.1695 -0.1194,-0.0562 -0.239,-0.11224 -0.3587,-0.16795 -0.1195,-0.0557 -0.2393,-0.1112 -0.3591,-0.1664 -0.12,-0.0552 -0.24,-0.11017 -0.3602,-0.16485 -0.1203,-0.0547 -0.2407,-0.10913 -0.3612,-0.16329 -0.1205,-0.0542 -0.241,-0.10811 -0.3618,-0.16175 -0.1208,-0.0535 -0.2417,-0.10673 -0.3627,-0.15968 -0.121,-0.0531 -0.2421,-0.10604 -0.3633,-0.15865 -0.1213,-0.0525 -0.2428,-0.10466 -0.3643,-0.15658 -0.1215,-0.0519 -0.2431,-0.10362 -0.3649,-0.15503 -0.1218,-0.0514 -0.2438,-0.10259 -0.3658,-0.15348 -0.1222,-0.0509 -0.2445,-0.10156 -0.3669,-0.15192 -0.1224,-0.0502 -0.2449,-0.10019 -0.3675,-0.14987 -0.1227,-0.0497 -0.2455,-0.0992 -0.3684,-0.14831 -0.1229,-0.0494 -0.2459,-0.0985 -0.369,-0.14728 -0.123,-0.0485 -0.2462,-0.0967 -0.3695,-0.14469 -0.1234,-0.0482 -0.2469,-0.0961 -0.3705,-0.14366 -0.1237,-0.0475 -0.2476,-0.0947 -0.3716,-0.14159 -0.1236,-0.0471 -0.2475,-0.094 -0.3715,-0.14056 -0.1243,-0.0464 -0.2485,-0.0926 -0.3731,-0.1385 -0.1242,-0.0457 -0.2486,-0.0912 -0.3731,-0.13642 -0.1246,-0.0454 -0.2493,-0.0905 -0.3741,-0.13539 -0.1248,-0.0447 -0.2496,-0.0892 -0.3746,-0.13333 -0.1252,-0.0442 -0.2505,-0.0881 -0.3758,-0.13177 -0.1253,-0.0437 -0.2507,-0.0871 -0.3762,-0.13023 -0.1254,-0.043 -0.251,-0.0857 -0.3767,-0.12816 -0.1258,-0.0425 -0.2517,-0.0847 -0.3778,-0.1266 -0.126,-0.042 -0.252,-0.0837 -0.3782,-0.12506 -0.1262,-0.0413 -0.2525,-0.0823 -0.3788,-0.12299 -0.1264,-0.0409 -0.2528,-0.0816 -0.3793,-0.12196 -0.1265,-0.0401 -0.2531,-0.0799 -0.3799,-0.11937 -0.1268,-0.0397 -0.2536,-0.0792 -0.3808,-0.11834 -0.127,-0.039 -0.2541,-0.0778 -0.3814,-0.11627 -0.1272,-0.0385 -0.2545,-0.0768 -0.3819,-0.11472 -0.1273,-0.038 -0.2548,-0.0757 -0.3824,-0.11317 -0.1275,-0.0373 -0.2551,-0.0744 -0.3828,-0.11111 -0.1277,-0.0368 -0.2555,-0.0733 -0.3834,-0.10955 -0.1282,-0.0363 -0.2563,-0.0723 -0.3846,-0.10801 -0.128,-0.0356 -0.2562,-0.0709 -0.3845,-0.10593 -0.1284,-0.0351 -0.2569,-0.0699 -0.3855,-0.10439 -0.1284,-0.0346 -0.2568,-0.0688 -0.3854,-0.10283 -0.1288,-0.0339 -0.2577,-0.0675 -0.3865,-0.10077 -0.1288,-0.0334 -0.2576,-0.0664 -0.3867,-0.0992 -0.129,-0.0327 -0.2582,-0.0651 -0.3875,-0.0971 -0.1293,-0.0322 -0.2586,-0.064 -0.3881,-0.0956 -0.1293,-0.0316 -0.2587,-0.063 -0.3881,-0.094 -0.1295,-0.031 -0.259,-0.0616 -0.3886,-0.092 -0.1298,-0.0304 -0.2597,-0.0606 -0.3897,-0.0904 -0.1297,-0.0299 -0.2596,-0.0596 -0.3895,-0.0889 -0.13,-0.0292 -0.2601,-0.0582 -0.3903,-0.0868 -0.13,-0.0287 -0.2604,-0.0571 -0.3906,-0.0853 -0.1304,-0.028 -0.2608,-0.0558 -0.3912,-0.0832 -0.1304,-0.0275 -0.2611,-0.0547 -0.3917,-0.0817 -0.1305,-0.027 -0.2611,-0.0537 -0.3917,-0.0801 -0.1307,-0.0263 -0.2615,-0.0523 -0.3923,-0.078 -0.1308,-0.0258 -0.2617,-0.0513 -0.3927,-0.0765 -0.131,-0.0251 -0.2621,-0.0499 -0.3933,-0.0744 -0.1312,-0.0246 -0.2624,-0.0489 -0.3937,-0.0729 -0.1313,-0.0241 -0.2624,-0.0478 -0.3937,-0.0713 -0.1315,-0.0234 -0.2628,-0.0465 -0.3944,-0.0693 -0.1314,-0.0227 -0.2628,-0.0451 -0.3943,-0.0672 -0.1317,-0.0223 -0.2635,-0.0444 -0.3953,-0.0661 -0.1317,-0.0215 -0.2635,-0.0427 -0.3953,-0.0636 -0.1318,-0.0211 -0.2635,-0.042 -0.3954,-0.0625 -0.1319,-0.0203 -0.2638,-0.0403 -0.3958,-0.0599 -0.1321,-0.0199 -0.2642,-0.0396 -0.3964,-0.0589 -0.1322,-0.0192 -0.2645,-0.0382 -0.3968,-0.0568 -0.1321,-0.0186 -0.2643,-0.0368 -0.3964,-0.0548 -0.1324,-0.018 -0.2649,-0.0358 -0.3974,-0.0532 -0.1324,-0.0175 -0.2649,-0.0347 -0.3974,-0.0517 -0.1324,-0.0168 -0.2649,-0.0334 -0.3973,-0.0496 -0.1327,-0.0163 -0.2653,-0.0323 -0.398,-0.0481 -0.1328,-0.0156 -0.2656,-0.031 -0.3984,-0.046 -0.1328,-0.0151 -0.2656,-0.0299 -0.3985,-0.0444 -0.1327,-0.0144 -0.2655,-0.0285 -0.3984,-0.0424 -0.1329,-0.0139 -0.2659,-0.0275 -0.3989,-0.0408 -0.133,-0.0132 -0.2659,-0.0261 -0.3989,-0.0388 -0.1332,-0.0127 -0.2663,-0.0251 -0.3995,-0.0372 -0.133,-0.0122 -0.2659,-0.0241 -0.399,-0.0357 -0.1332,-0.0113 -0.2666,-0.0223 -0.3999,-0.0331 -0.1332,-0.011 -0.2663,-0.0217 -0.3995,-0.032 -0.1333,-0.0103 -0.2666,-0.0203 -0.4,-0.03 -0.1333,-0.01 -0.2666,-0.0189 -0.3999,-0.0279 -0.1335,-0.009 -0.267,-0.0179 -0.4005,-0.0264 -0.1333,-0.009 -0.2667,-0.0168 -0.3999,-0.0248 -0.1336,-0.008 -0.2671,-0.0155 -0.4006,-0.0227 -0.1336,-0.007 -0.2673,-0.0141 -0.401,-0.0207 -0.1334,-0.007 -0.267,-0.0134 -0.4004,-0.0196 -0.1336,-0.006 -0.2671,-0.0117 -0.4005,-0.017 -0.1337,-0.005 -0.2673,-0.0106 -0.401,-0.0155 -0.1337,-0.005 -0.2673,-0.01 -0.401,-0.014 -0.1337,-0.004 -0.2673,-0.008 -0.401,-0.0119 -0.1337,-0.004 -0.2673,-0.007 -0.401,-0.0103 -0.1337,-0.003 -0.2674,-0.006 -0.401,-0.008 l -0.4016,-0.006 c -0.1336,-0.002 -0.2673,-0.003 -0.401,-0.005 l -0.401,-0.003 c -0.1338,-6.4e-4 -0.2677,-9.8e-4 -0.4015,-10e-4 -0.1337,-1.3e-4 -0.2673,4e-5 -0.401,5.3e-4 -0.1337,5.5e-4 -0.2674,0.001 -0.401,0.003 -0.1339,0.001 -0.2677,0.002 -0.4015,0.004 l -0.4011,0.006 c -0.1336,0.002 -0.2673,0.005 -0.401,0.008 -0.1336,0.003 -0.2673,0.006 -0.401,0.01 -0.1336,0.004 -0.2673,0.007 -0.401,0.0114 -0.1337,0.004 -0.2673,0.009 -0.401,0.0134 -0.1337,0.005 -0.2673,0.01 -0.401,0.015 -0.1335,0.005 -0.267,0.0111 -0.4005,0.017 -0.1337,0.006 -0.2674,0.0121 -0.401,0.0186 -0.1335,0.007 -0.267,0.0135 -0.4005,0.0207 -0.1335,0.007 -0.267,0.0145 -0.4005,0.0222 -0.1335,0.008 -0.267,0.0159 -0.4005,0.0243 -0.1333,0.008 -0.2667,0.0169 -0.4,0.0258 -0.1335,0.009 -0.267,0.0183 -0.4005,0.0279 -0.1332,0.01 -0.2663,0.0193 -0.3994,0.0295 -0.1334,0.01 -0.2667,0.0204 -0.4,0.031 -0.1332,0.0107 -0.2663,0.0217 -0.3994,0.0331 -0.1332,0.0114 -0.2664,0.0231 -0.3995,0.0351 -0.1332,0.0119 -0.2664,0.0242 -0.3995,0.0367 -0.133,0.0125 -0.266,0.0252 -0.3989,0.0382 -0.133,0.0131 -0.266,0.0266 -0.399,0.0403 -0.133,0.0138 -0.2659,0.028 -0.3989,0.0424 -0.1328,0.0143 -0.2657,0.029 -0.3984,0.0439 -0.1327,0.0149 -0.2653,0.03 -0.3979,0.0455 -0.1327,0.0156 -0.2654,0.0314 -0.3979,0.0475 -0.1327,0.0161 -0.2654,0.0324 -0.3979,0.0491 -0.1326,0.0168 -0.265,0.0338 -0.3974,0.0512 -0.1325,0.0173 -0.265,0.0348 -0.3974,0.0527 -0.1324,0.018 -0.2647,0.0362 -0.3969,0.0548 -0.1322,0.0185 -0.2643,0.0373 -0.3964,0.0563 -0.1321,0.0192 -0.2642,0.0386 -0.3963,0.0584 -0.132,0.0197 -0.264,0.0397 -0.3959,0.0599 -0.132,0.0202 -0.2639,0.0407 -0.3958,0.0615 -0.1318,0.0209 -0.2636,0.0421 -0.3953,0.0636 -0.1318,0.0214 -0.2636,0.0431 -0.3953,0.0651 -0.1315,0.0221 -0.263,0.0445 -0.3943,0.0672 -0.1317,0.0226 -0.2633,0.0455 -0.3949,0.0687 -0.1313,0.0233 -0.2625,0.0469 -0.3937,0.0708 -0.1314,0.0238 -0.2626,0.0479 -0.3938,0.0724 -0.1311,0.0245 -0.2622,0.0493 -0.3933,0.0744 -0.1309,0.025 -0.2619,0.0503 -0.3927,0.076 -0.1308,0.0256 -0.2616,0.0514 -0.3922,0.0775 -0.1308,0.0262 -0.2616,0.0528 -0.3923,0.0796 -0.1306,0.0267 -0.2611,0.0538 -0.3916,0.0811 -0.1305,0.0273 -0.2609,0.0548 -0.3913,0.0827 -0.1302,0.028 -0.2605,0.0562 -0.3906,0.0847 -0.1301,0.0286 -0.2602,0.0576 -0.3902,0.0868 -0.1301,0.029 -0.2602,0.0583 -0.3901,0.0879 -0.1298,0.0299 -0.2595,0.06 -0.3891,0.0904 -0.1298,0.0302 -0.2595,0.0607 -0.3892,0.0915 -0.1296,0.0309 -0.2591,0.0621 -0.3886,0.0935 -0.1294,0.0314 -0.2588,0.0631 -0.3881,0.0951 -0.1291,0.0321 -0.2581,0.0645 -0.387,0.0971 -0.1292,0.0326 -0.2582,0.0655 -0.3871,0.0987 -0.1289,0.0333 -0.2578,0.0669 -0.3865,0.10076 -0.1288,0.0336 -0.2575,0.0676 -0.3861,0.10181 -0.1285,0.0343 -0.257,0.069 -0.3854,0.10387 -0.1283,0.035 -0.2565,0.0703 -0.3845,0.10593 -0.1283,0.0355 -0.2564,0.0714 -0.3845,0.10749 -0.1281,0.0361 -0.2561,0.0724 -0.384,0.10904 -0.1277,0.0366 -0.2553,0.0734 -0.3829,0.11059 -0.1275,0.0373 -0.255,0.0748 -0.3824,0.11265 -0.1275,0.0378 -0.255,0.0759 -0.3824,0.1142 -0.1272,0.0385 -0.2544,0.0772 -0.3814,0.11628 -0.127,0.039 -0.254,0.0783 -0.3808,0.11782 -0.1267,0.0395 -0.2534,0.0793 -0.3799,0.11937 -0.1267,0.04 -0.2533,0.0803 -0.3798,0.12092 -0.1263,0.0407 -0.2526,0.0817 -0.3787,0.12299 -0.1262,0.0412 -0.2523,0.0827 -0.3783,0.12454 -0.126,0.0417 -0.252,0.0838 -0.3778,0.1261 -0.1259,0.0424 -0.2516,0.0852 -0.3772,0.12815 -0.1255,0.043 -0.2509,0.0862 -0.3762,0.12971 -0.1253,0.0435 -0.2506,0.0872 -0.3757,0.13126 -0.125,0.044 -0.2499,0.0883 -0.3747,0.13281 -0.125,0.0447 -0.2498,0.0896 -0.3746,0.13487 -0.1247,0.0452 -0.2492,0.0907 -0.3736,0.13643 -0.1243,0.0457 -0.2486,0.0917 -0.3726,0.13797 -0.1242,0.0462 -0.2482,0.0927 -0.3721,0.13953 -0.124,0.0469 -0.2478,0.0941 -0.3715,0.14159 -0.1237,0.0474 -0.2472,0.0952 -0.3706,0.14315 -0.1234,0.0479 -0.2468,0.0962 -0.3701,0.14469 -0.1233,0.0485 -0.2464,0.0972 -0.3694,0.14625 -0.123,0.0492 -0.2458,0.0986 -0.3685,0.14831 -0.1226,0.0495 -0.2451,0.0993 -0.3674,0.14934 -0.1225,0.0502 -0.2448,0.10067 -0.3669,0.15141 -0.1221,0.0507 -0.2441,0.10171 -0.3659,0.15297 -0.1219,0.0514 -0.2437,0.10308 -0.3654,0.15503 -0.1217,0.0518 -0.2433,0.10376 -0.3648,0.15606 -0.1212,0.0524 -0.2423,0.10515 -0.3633,0.15813 -0.1212,0.0529 -0.2423,0.10618 -0.3633,0.15968 -0.1207,0.0533 -0.2413,0.10687 -0.3617,0.16071 -0.1205,0.0542 -0.241,0.1086 -0.3612,0.1633 -0.1202,0.0545 -0.2403,0.10928 -0.3602,0.16433 -0.12,0.055 -0.2399,0.11032 -0.3597,0.16588 -0.1197,0.0557 -0.2392,0.1117 -0.3586,0.16795 -0.1193,0.0561 -0.2386,0.11239 -0.3576,0.16898 -0.1192,0.0567 -0.2382,0.11377 -0.3571,0.17105 -0.1188,0.0573 -0.2375,0.1148 -0.356,0.1726 -0.1185,0.0578 -0.2369,0.11583 -0.355,0.17415 -0.1182,0.0583 -0.2362,0.11687 -0.354,0.1757 -0.118,0.0588 -0.2358,0.1179 -0.3535,0.17725 -0.1176,0.0593 -0.2351,0.11894 -0.3524,0.1788 -0.1173,0.0598 -0.2345,0.11997 -0.3514,0.18035 -0.117,0.0604 -0.2338,0.12101 -0.3504,0.1819 -0.1166,0.0611 -0.2331,0.12239 -0.3493,0.18397 -0.1165,0.0614 -0.2327,0.12307 -0.3488,0.185 -0.116,0.0619 -0.2317,0.12411 -0.3473,0.18655 -0.1158,0.0626 -0.2313,0.12549 -0.3468,0.18862 -0.1154,0.063 -0.2306,0.12618 -0.3457,0.18966 -0.115,0.0635 -0.2299,0.12721 -0.3447,0.1912 -0.1147,0.0642 -0.2292,0.12859 -0.3436,0.19327 -0.1144,0.0645 -0.2286,0.12928 -0.3426,0.1943 -0.1141,0.0652 -0.2279,0.13066 -0.3416,0.19637 -0.1139,0.0655 -0.2275,0.13135 -0.3411,0.19741 -0.1133,0.0661 -0.2265,0.13238 -0.3395,0.19895 -0.113,0.0666 -0.2258,0.13342 -0.3385,0.20051 -0.1126,0.0673 -0.2251,0.13479 -0.3374,0.20257 -0.1123,0.0676 -0.2245,0.13548 -0.3364,0.2036 -0.1122,0.0681 -0.2241,0.13652 -0.3359,0.20516 -0.1117,0.0686 -0.2231,0.13755 -0.3344,0.2067 -0.1113,0.0692 -0.2224,0.13859 -0.3333,0.20826 -0.1107,0.0695 -0.2213,0.13928 -0.3317,0.20929 -0.1106,0.0702 -0.2211,0.14066 -0.3313,0.21136 -0.1103,0.0706 -0.2203,0.14134 -0.3302,0.21239 -0.1097,0.0712 -0.2193,0.14272 -0.3287,0.21445 -0.1095,0.0716 -0.2189,0.14342 -0.3281,0.21549 -0.1091,0.0721 -0.2179,0.14445 -0.3266,0.21704 -0.1087,0.0726 -0.2172,0.14549 -0.3256,0.2186 -0.1083,0.0731 -0.2165,0.14651 -0.3245,0.22014 -0.1078,0.0735 -0.2155,0.14721 -0.323,0.22117 -0.1077,0.0742 -0.2151,0.14859 -0.3224,0.22324 -0.1072,0.0745 -0.2141,0.14928 -0.3209,0.22428 -0.1068,0.075 -0.2135,0.15031 -0.3199,0.22583 -0.1063,0.0756 -0.2124,0.15134 -0.3183,0.22737 -0.1061,0.0759 -0.2121,0.15204 -0.3178,0.22841 -0.1057,0.0764 -0.2111,0.15307 -0.3163,0.22996 -0.1053,0.0769 -0.2103,0.15411 -0.3152,0.23151 -0.1048,0.0774 -0.2093,0.15514 -0.3137,0.23306 -0.1044,0.078 -0.2086,0.15618 -0.3126,0.23461 -0.1041,0.0783 -0.208,0.15687 -0.3116,0.23565 -0.1036,0.0788 -0.2069,0.1579 -0.3101,0.23719 -0.1032,0.0792 -0.2062,0.15859 -0.309,0.23823 -0.1029,0.0799 -0.2056,0.15997 -0.308,0.2403 -0.1024,0.0802 -0.2045,0.16065 -0.3065,0.24133 -0.102,0.0806 -0.2038,0.16134 -0.3054,0.24236 -0.1015,0.0811 -0.2028,0.16238 -0.3038,0.24391 -0.1012,0.0816 -0.2021,0.16342 -0.3029,0.24547 -0.1006,0.0821 -0.201,0.16445 -0.3012,0.24701 -0.1003,0.0825 -0.2004,0.16514 -0.3003,0.24805 -0.1,0.083 -0.1993,0.16617 -0.2986,0.24959 -0.099,0.0833 -0.1987,0.16687 -0.2977,0.25063 -0.099,0.0838 -0.198,0.1679 -0.2966,0.25218 -0.099,0.0844 -0.197,0.16894 -0.2951,0.25374 -0.098,0.0847 -0.1959,0.16962 -0.2935,0.25476 -0.098,0.085 -0.1952,0.17031 -0.2925,0.2558 -0.097,0.0856 -0.1942,0.17135 -0.2909,0.25735 -0.048,0.0432 -0.097,0.0864 -0.1447,0.12971 -0.313,0.22451 -0.6237,0.41679 -0.9369,0.64492 l -2.2351,2.345591 -51.5527,54.41051 c -2.6454,2.76119 -4.6729,4.07606 -7.8509,6.0013 -0.8229,0.49655 -1.6394,0.96309 -2.4499,1.39992 -0.8105,0.43683 -1.6149,0.84392 -2.4138,1.2206 -0.799,0.37668 -1.5926,0.72311 -2.3808,1.03921 -0.7882,0.3161 -1.5708,0.60172 -2.3492,0.8568 -0.7783,0.25507 -1.552,0.47972 -2.3213,0.67334 -0.452,0.11377 -0.8996,0.19437 -1.3487,0.2868 l -0.013,0.002 c -0.081,0.009 -0.1619,0.0172 -0.2429,0.0253 -0.081,0.008 -0.1622,0.0161 -0.2434,0.0238 -0.081,0.007 -0.1619,0.0147 -0.2429,0.0217 -0.081,0.007 -0.1626,0.0137 -0.2439,0.0202 -0.081,0.007 -0.1622,0.0127 -0.2434,0.0186 -0.081,0.006 -0.1626,0.0116 -0.2439,0.0171 -0.082,0.005 -0.1629,0.0103 -0.2445,0.015 -0.082,0.005 -0.1629,0.01 -0.2444,0.0139 -0.081,0.004 -0.1626,0.008 -0.2439,0.0119 -0.082,0.004 -0.1633,0.007 -0.2449,0.01 -0.082,0.003 -0.163,0.006 -0.2445,0.009 -0.082,0.003 -0.1629,0.005 -0.2444,0.007 -0.082,0.002 -0.1633,0.004 -0.2449,0.005 -0.082,0.002 -0.1633,0.003 -0.245,0.004 -0.082,8e-4 -0.1629,10e-4 -0.2444,0.002 -0.082,5.3e-4 -0.1633,5.3e-4 -0.245,5.3e-4 -0.082,-2.4e-4 -0.1633,-7.9e-4 -0.2449,-0.002 -0.082,-7.9e-4 -0.163,-0.002 -0.2444,-0.003 -0.082,-10e-4 -0.1633,-0.003 -0.245,-0.005 -0.082,-0.002 -0.1633,-0.004 -0.2449,-0.006 -0.082,-0.002 -0.163,-0.005 -0.2445,-0.008 -0.082,-0.003 -0.1629,-0.007 -0.2444,-0.0103 -0.082,-0.004 -0.163,-0.007 -0.2444,-0.0114 -0.082,-0.004 -0.163,-0.009 -0.2445,-0.0134 -0.081,-0.005 -0.1626,-0.01 -0.2439,-0.015 -0.081,-0.005 -0.1626,-0.0107 -0.2439,-0.0165 -0.081,-0.006 -0.1626,-0.0118 -0.2439,-0.0181 -0.081,-0.006 -0.1623,-0.0131 -0.2434,-0.0202 -0.081,-0.007 -0.1623,-0.0138 -0.2434,-0.0212 -0.081,-0.007 -0.1623,-0.0152 -0.2434,-0.0233 -0.081,-0.008 -0.1619,-0.0166 -0.2429,-0.0253 -0.081,-0.008 -0.1619,-0.0173 -0.2428,-0.0263 -0.081,-0.009 -0.1617,-0.0187 -0.2424,-0.0284 -0.081,-0.01 -0.1613,-0.0197 -0.2418,-0.03 -0.081,-0.0102 -0.1613,-0.0207 -0.2419,-0.0315 -0.081,-0.0107 -0.1609,-0.0218 -0.2413,-0.0331 -0.081,-0.0114 -0.161,-0.0231 -0.2413,-0.0351 -0.08,-0.0118 -0.1603,-0.0238 -0.2403,-0.0362 -0.08,-0.0125 -0.1603,-0.0252 -0.2403,-0.0382 -0.08,-0.013 -0.1603,-0.0263 -0.2403,-0.0398 -0.08,-0.0135 -0.1596,-0.0273 -0.2393,-0.0413 -0.08,-0.0142 -0.1596,-0.0287 -0.2393,-0.0434 -0.057,-0.0104 -0.1133,-0.0209 -0.17,-0.0315 -0.079,-0.0151 -0.1589,-0.0304 -0.2382,-0.046 -0.079,-0.0156 -0.1586,-0.0314 -0.2377,-0.0475 -0.079,-0.0161 -0.1586,-0.0325 -0.2377,-0.0491 -0.079,-0.0166 -0.1579,-0.0335 -0.2367,-0.0506 -0.079,-0.0173 -0.1575,-0.0349 -0.2362,-0.0527 -0.079,-0.0177 -0.1572,-0.0356 -0.2356,-0.0537 -0.079,-0.0183 -0.1572,-0.0369 -0.2357,-0.0558 -0.078,-0.0189 -0.1565,-0.038 -0.2346,-0.0574 -0.078,-0.0194 -0.1558,-0.039 -0.2335,-0.0589 -0.078,-0.0199 -0.1559,-0.04 -0.2336,-0.0605 -0.078,-0.0204 -0.1555,-0.0411 -0.2331,-0.062 -0.077,-0.0209 -0.1548,-0.0421 -0.232,-0.0636 -0.077,-0.0214 -0.1545,-0.0431 -0.2315,-0.0651 -0.077,-0.022 -0.1541,-0.0442 -0.231,-0.0667 -0.077,-0.0226 -0.1534,-0.0456 -0.23,-0.0687 -0.077,-0.023 -0.1531,-0.0462 -0.2294,-0.0698 -0.076,-0.0237 -0.1528,-0.0476 -0.2289,-0.0718 -0.076,-0.024 -0.1521,-0.0483 -0.2279,-0.0729 -0.076,-0.0247 -0.1514,-0.0497 -0.2269,-0.0749 -0.076,-0.0251 -0.1514,-0.0504 -0.2269,-0.076 -0.075,-0.0257 -0.1503,-0.0518 -0.2253,-0.078 -0.075,-0.0261 -0.1503,-0.0524 -0.2253,-0.0791 -0.075,-0.0266 -0.1493,-0.0535 -0.2237,-0.0806 -0.075,-0.0273 -0.149,-0.0549 -0.2233,-0.0827 -0.074,-0.0276 -0.1483,-0.0556 -0.2222,-0.0837 -0.074,-0.0283 -0.1479,-0.0569 -0.2217,-0.0858 -0.074,-0.0287 -0.1472,-0.0576 -0.2206,-0.0868 -0.073,-0.0292 -0.1466,-0.0587 -0.2197,-0.0884 -0.073,-0.0297 -0.1462,-0.0597 -0.2191,-0.0899 -0.073,-0.0302 -0.1452,-0.0607 -0.2175,-0.0915 -0.072,-0.0308 -0.1449,-0.0618 -0.2171,-0.093 -0.072,-0.0311 -0.1441,-0.0624 -0.216,-0.094 -0.072,-0.0318 -0.1435,-0.0638 -0.2149,-0.0961 -0.072,-0.0321 -0.1428,-0.0645 -0.214,-0.0971 -0.071,-0.0328 -0.1424,-0.0659 -0.2134,-0.0992 -0.071,-0.0332 -0.1414,-0.0666 -0.2119,-0.10025 -0.07,-0.0337 -0.1407,-0.0676 -0.2108,-0.1018 -0.07,-0.034 -0.1401,-0.0683 -0.2098,-0.10284 -0.07,-0.0347 -0.1397,-0.0697 -0.2093,-0.1049 -0.069,-0.0351 -0.1387,-0.0704 -0.2078,-0.10594 -0.069,-0.0356 -0.1379,-0.0714 -0.2067,-0.10749 -0.069,-0.0359 -0.1373,-0.0721 -0.2056,-0.10851 -0.068,-0.0366 -0.1367,-0.0735 -0.2047,-0.11059 -0.068,-0.037 -0.1356,-0.0742 -0.2031,-0.11162 -0.065,-0.0363 -0.1304,-0.0728 -0.1953,-0.10956 -0.718,-0.53816 -1.4597,-1.06859 -2.1415,-1.61954 -1.2336,-0.99689 -2.401,-2.01843 -3.4788,-3.07991 -0.5389,-0.53074 -1.0557,-1.07181 -1.5467,-1.62419 -0.491,-0.55239 -0.9562,-1.11627 -1.3932,-1.69396 -0.437,-0.57768 -0.8456,-1.16895 -1.2227,-1.7756 -0.3771,-0.60665 -0.7228,-1.22882 -1.034,-1.8681 -0.3112,-0.63928 -0.5881,-1.29589 -0.8274,-1.97146 -0.2392,-0.67556 -0.4411,-1.37014 -0.6025,-2.08566 -0.024,-0.10704 -0.031,-0.22275 -0.054,-0.33073 -0.1203,-0.58209 -0.2243,-1.17225 -0.2899,-1.78283 -0.01,-0.0587 -0.012,-0.11747 -0.017,-0.17622 v -0.0532 c -0.01,-0.0863 -0.014,-0.17378 -0.021,-0.26096 0,-0.0288 0,-0.0575 -0.01,-0.0863 0,-0.0668 -0.01,-0.13366 -0.013,-0.20051 v -0.016 -0.0326 c -0.02,-0.37978 -0.029,-0.76558 -0.032,-1.15445 v -0.008 c 0,-0.15489 -0.022,-0.29957 -0.019,-0.4563 0.012,-0.8064 0.071,-1.63709 0.1793,-2.49442 0.1083,-0.85734 0.2663,-1.74114 0.4765,-2.65307 0.2102,-0.91194 0.6477,-2.34963 0.9658,-3.31982 0.4409,-1.36166 1.4855,-3.14953 2.4169,-4.28489 0.438,-0.53896 0.9996,-1.1105 1.5105,-1.62625 0.511,-0.51576 1.0292,-1.00486 1.5555,-1.46555 0.5262,-0.46068 1.0607,-0.8931 1.603,-1.29604 0.5423,-0.40294 1.0925,-0.77628 1.6516,-1.1188 0.559,-0.34252 1.1266,-0.65437 1.7032,-0.93379 0.5766,-0.27942 1.1621,-0.52637 1.757,-0.74001 0.5695,-0.20451 1.1489,-0.37442 1.7358,-0.51624 0.036,-0.007 0.071,-0.0149 0.107,-0.0222 0.063,-0.0129 0.126,-0.0255 0.1891,-0.0377 0.036,-0.007 0.072,-0.0135 0.1075,-0.0202 0.1674,-0.0361 0.3386,-0.0585 0.5075,-0.0894 0.049,-0.008 0.097,-0.0157 0.1462,-0.0233 0.064,-0.01 0.1274,-0.0193 0.1912,-0.0284 0.064,-0.009 0.1275,-0.0182 0.1912,-0.0269 0.064,-0.009 0.1275,-0.0168 0.1912,-0.0248 0.064,-0.008 0.1278,-0.0155 0.1918,-0.0227 0.064,-0.007 0.1281,-0.0145 0.1922,-0.0212 0.064,-0.007 0.1281,-0.0134 0.1922,-0.0196 0.064,-0.006 0.1282,-0.0117 0.1923,-0.0171 0.064,-0.006 0.1281,-0.0106 0.1922,-0.0155 0.064,-0.005 0.1285,-0.01 0.1928,-0.0139 0.064,-0.004 0.1284,-0.008 0.1927,-0.0119 0.064,-0.004 0.1285,-0.007 0.1928,-0.01 0.064,-0.003 0.1288,-0.006 0.1932,-0.008 0.064,-0.002 0.1285,-0.004 0.1928,-0.006 0.064,-0.002 0.1288,-0.003 0.1933,-0.004 0.064,-10e-4 0.1285,-0.002 0.1927,-0.003 0.064,-5.3e-4 0.1289,-5.3e-4 0.1933,-5.3e-4 0.064,3e-5 0.1288,2.6e-4 0.1932,0.001 0.064,7.9e-4 0.1289,0.002 0.1933,0.003 0.061,10e-4 0.1209,0.003 0.1814,0.005 l 0.011,5.3e-4 h 5e-4 c 8e-4,2e-5 0,-3e-5 0,0 0.146,0.007 0.2914,0.0124 0.4372,0.0186 0.046,0.002 0.092,0.005 0.1385,0.008 0.018,0.001 0.036,0.002 0.055,0.004 0.1362,0.007 0.2726,0.0147 0.4108,0.0295 0.037,0.003 0.075,0.006 0.1122,0.01 0.016,0.002 0.032,0.003 0.049,0.005 0.6609,0.0763 1.3318,0.18747 2.0138,0.33951 0.6974,0.15547 1.4058,0.35127 2.126,0.58859 0.7201,0.23733 1.4515,0.51581 2.1952,0.83768 0.7436,0.32186 1.4992,0.68697 2.267,1.09605 0.049,0.0258 0.099,0.0596 0.1478,0.0858 0.7209,0.38851 1.4504,0.80789 2.1932,1.27538 l -21.0707,18.84803 c 0.347,0.63188 0.5646,0.7768 0.9674,1.26576 0.015,0.0138 0.3025,0.32393 0.3175,0.33763 0.049,0.0459 0.099,0.0915 0.1483,0.13695 0.05,0.0457 0.1,0.0912 0.1498,0.13642 0.05,0.045 0.1007,0.0898 0.1514,0.13436 0.051,0.0447 0.1014,0.0891 0.1525,0.13333 0.051,0.0443 0.1024,0.0884 0.154,0.13229 0.052,0.0438 0.1035,0.0874 0.1555,0.13074 0.052,0.0435 0.1042,0.0867 0.1566,0.12971 0.052,0.0429 0.1049,0.0857 0.1576,0.12815 0.053,0.0424 0.1059,0.0846 0.1592,0.12661 0.053,0.0421 0.1069,0.0839 0.1607,0.12558 0.054,0.0416 0.1076,0.0829 0.1617,0.12402 0.054,0.0412 0.1087,0.0822 0.1633,0.12299 0.055,0.0407 0.1094,0.0812 0.1644,0.12144 0.055,0.0402 0.11,0.0802 0.1653,0.11989 0.055,0.0399 0.1111,0.0795 0.167,0.11885 0.056,0.0392 0.1117,0.0781 0.1679,0.11679 0.056,0.039 0.1125,0.0777 0.169,0.11627 0.057,0.0383 0.1131,0.0764 0.17,0.11421 0.057,0.038 0.1142,0.0757 0.1716,0.11317 0.057,0.0373 0.1148,0.0743 0.1726,0.11111 0.058,0.0369 0.1155,0.0736 0.1736,0.11007 0.058,0.0366 0.1166,0.0729 0.1752,0.10903 0.058,0.0359 0.1169,0.0716 0.1757,0.10697 0.059,0.0354 0.118,0.0705 0.1772,0.10542 0.059,0.0351 0.1187,0.0698 0.1783,0.10439 0.059,0.0345 0.119,0.0688 0.1788,0.10284 0.06,0.0338 0.1201,0.0674 0.1804,0.10077 0.06,0.0335 0.1207,0.0667 0.1813,0.0997 0.061,0.033 0.1211,0.0657 0.1819,0.0982 0.061,0.0325 0.1222,0.0647 0.1835,0.0966 0.061,0.0319 0.1225,0.0636 0.184,0.0951 0.062,0.0314 0.1235,0.0626 0.1855,0.0935 0.062,0.0309 0.1239,0.0616 0.186,0.092 0.062,0.0304 0.1246,0.0606 0.1871,0.0904 0.062,0.0299 0.1252,0.0595 0.1881,0.0889 0.063,0.0294 0.1256,0.0585 0.1886,0.0873 0.063,0.0287 0.1263,0.0571 0.1897,0.0853 0.063,0.0283 0.1269,0.0564 0.1906,0.0842 0.064,0.0278 0.1277,0.0554 0.1918,0.0827 0.064,0.0272 0.128,0.054 0.1922,0.0806 0.064,0.0266 0.1287,0.053 0.1933,0.0791 0.064,0.0261 0.129,0.0519 0.1938,0.0775 0.065,0.0256 0.1294,0.0509 0.1943,0.076 0.065,0.0251 0.1304,0.0499 0.1958,0.0744 0.065,0.0246 0.1305,0.0489 0.1959,0.0729 0.066,0.024 0.1315,0.0478 0.1974,0.0713 0.066,0.0234 0.1315,0.0464 0.1974,0.0692 0.066,0.0228 0.1322,0.0454 0.1984,0.0677 0.066,0.0223 0.1325,0.0444 0.199,0.0661 0.066,0.0217 0.1328,0.043 0.1994,0.0641 0.067,0.0213 0.1336,0.0423 0.2005,0.063 0.067,0.0206 0.134,0.0409 0.2011,0.061 0.067,0.0201 0.1342,0.0399 0.2015,0.0594 0.067,0.0194 0.135,0.0385 0.2026,0.0574 0.067,0.0191 0.1349,0.0378 0.2025,0.0563 0.068,0.0184 0.1353,0.0365 0.2031,0.0543 0.068,0.0177 0.136,0.0351 0.2042,0.0522 0.068,0.0173 0.136,0.0344 0.2041,0.0512 0.068,0.0166 0.1367,0.033 0.2051,0.0491 0.068,0.0159 0.1371,0.0316 0.2057,0.047 0.068,0.0156 0.137,0.031 0.2057,0.046 0.069,0.0149 0.1374,0.0296 0.2062,0.0439 0.069,0.0144 0.1377,0.0285 0.2067,0.0424 0.069,0.0137 0.1381,0.0272 0.2072,0.0403 0.069,0.0132 0.1384,0.0261 0.2077,0.0388 0.069,0.0127 0.1388,0.0251 0.2083,0.0372 0.069,0.012 0.1388,0.0237 0.2082,0.0351 0.069,0.0115 0.1392,0.0227 0.2088,0.0336 0.07,0.0108 0.1392,0.0213 0.2088,0.0315 0.07,0.0103 0.1395,0.0203 0.2093,0.03 0.07,0.01 0.1398,0.0192 0.2098,0.0284 0.07,0.009 0.1398,0.0179 0.2098,0.0264 0.07,0.009 0.1402,0.0168 0.2103,0.0248 0.07,0.008 0.1402,0.0154 0.2103,0.0227 0.07,0.007 0.1406,0.0144 0.2109,0.0212 0.07,0.007 0.1405,0.0134 0.2108,0.0196 0.07,0.006 0.1406,0.012 0.2109,0.0176 0.07,0.006 0.1408,0.011 0.2113,0.016 0.07,0.005 0.1409,0.01 0.2114,0.0139 0.071,0.004 0.1412,0.009 0.2119,0.0124 0.07,0.004 0.1408,0.008 0.2113,0.0109 0.071,0.003 0.1412,0.006 0.2119,0.009 0.071,0.003 0.1412,0.005 0.2119,0.007 0.071,0.002 0.1412,0.004 0.2118,0.005 0.071,0.002 0.1413,0.003 0.2119,0.004 0.071,8e-4 0.1412,0.001 0.2119,0.002 0.071,2.7e-4 0.1412,2.7e-4 0.2118,0 0.071,-2.2e-4 0.1413,-7.9e-4 0.2119,-0.002 0.071,-10e-4 0.1413,-0.002 0.2119,-0.004 0.071,-10e-4 0.1413,-0.003 0.2119,-0.005 l 0.048,-0.002 c 0.071,-0.002 0.1409,-0.005 0.2113,-0.008 0.071,-0.003 0.1413,-0.006 0.2119,-0.009 0.071,-0.003 0.1413,-0.007 0.2119,-0.0109 0.071,-0.004 0.1409,-0.008 0.2113,-0.0129 0.071,-0.005 0.141,-0.01 0.2114,-0.015 0.071,-0.005 0.1409,-0.0104 0.2113,-0.016 0.07,-0.006 0.1406,-0.0121 0.2109,-0.0186 0.07,-0.006 0.1406,-0.0128 0.2108,-0.0196 0.07,-0.007 0.1403,-0.0145 0.2103,-0.0222 0.07,-0.007 0.1403,-0.0152 0.2104,-0.0233 0.07,-0.008 0.1402,-0.0166 0.2103,-0.0253 0.07,-0.009 0.1399,-0.0176 0.2098,-0.0269 0.07,-0.009 0.1399,-0.019 0.2098,-0.0289 0.07,-0.01 0.1396,-0.02 0.2093,-0.0305 0.07,-0.0106 0.1392,-0.0214 0.2088,-0.0326 0.07,-0.0111 0.1392,-0.0224 0.2087,-0.0341 0.07,-0.0116 0.1389,-0.0235 0.2083,-0.0356 0.069,-0.0123 0.1386,-0.0249 0.2077,-0.0377 0.069,-0.0128 0.1382,-0.0259 0.2073,-0.0393 0.069,-0.0133 0.1382,-0.0269 0.2072,-0.0408 0.069,-0.014 0.1379,-0.0283 0.2067,-0.0429 0.069,-0.0145 0.1375,-0.0293 0.2062,-0.0444 0.069,-0.0152 0.1372,-0.0307 0.2056,-0.0465 0.069,-0.0156 0.1369,-0.0314 0.2052,-0.0475 0.068,-0.0164 0.1365,-0.0331 0.2046,-0.0501 0.068,-0.0168 0.1365,-0.0338 0.2047,-0.0512 0.068,-0.0175 0.1358,-0.0352 0.2036,-0.0532 0.068,-0.018 0.1355,-0.0362 0.2031,-0.0548 0.068,-0.0185 0.1351,-0.0373 0.2025,-0.0563 0.068,-0.0192 0.1348,-0.0386 0.2021,-0.0584 0.067,-0.0197 0.1345,-0.0397 0.2015,-0.06 0.067,-0.0202 0.1338,-0.0407 0.2005,-0.0615 0.067,-0.0208 0.1338,-0.0417 0.2005,-0.063 0.067,-0.0214 0.1331,-0.0431 0.1995,-0.0651 0.066,-0.0219 0.1324,-0.0442 0.1985,-0.0667 0.066,-0.0225 0.1324,-0.0452 0.1984,-0.0682 0.066,-0.023 0.1317,-0.0462 0.1974,-0.0698 0.066,-0.0237 0.131,-0.0476 0.1964,-0.0718 0.066,-0.024 0.131,-0.0483 0.1963,-0.0729 0.065,-0.0247 0.13,-0.0497 0.1949,-0.0749 0.065,-0.0252 0.13,-0.0507 0.1948,-0.0765 0.053,-0.0214 0.1055,-0.0429 0.1581,-0.0646 0.4688,-0.26168 0.9326,-0.50924 1.4092,-0.7922 16.5073,-12.32467 30.3277,-30.09048 44.7668,-45.44123 -0.5483,-0.96867 -1.1302,-1.91669 -1.7446,-2.84375 -0.6144,-0.92707 -1.2611,-1.833031 -1.9389,-2.717151 -0.6779,-0.88412 -1.3869,-1.74656 -2.1255,-2.58641 -0.7385,-0.83984 -1.5066,-1.65729 -2.3032,-2.45153 -0.7966,-0.79423 -1.6219,-1.56523 -2.4738,-2.31252 -0.8518,-0.74729 -1.7305,-1.47088 -2.6349,-2.16989 -0.9045,-0.69901 -1.8347,-1.37373 -2.789,-2.02313 -0.9543,-0.6494 -1.9327,-1.27327 -2.9342,-1.87172 -1.0015,-0.59846 -2.0257,-1.17155 -3.0716,-1.71773 -1.046,-0.54618 -2.1137,-1.06547 -3.2014,-1.55804 -1.0877,-0.49257 -2.1956,-0.95816 -3.3223,-1.39578 -1.1267,-0.43763 -2.2724,-0.84752 -3.4354,-1.22887 -1.1631,-0.38134 -2.3437,-0.73408 -3.5404,-1.05781 -1.1966,-0.32374 -2.4094,-0.61836 -3.637,-0.88315 -1.2275,-0.2648 -2.4696,-0.49984 -3.7253,-0.70435 -1.2558,-0.20452 -2.5253,-0.37852 -3.8065,-0.52142 -1.2813,-0.1429 -2.5743,-0.25491 -3.8783,-0.33486 -1.304,-0.08 -2.6188,-0.12799 -3.9429,-0.14366 z"
             style="fill:#2a8ca1;fill-opacity:1;stroke-width:2.12458;stroke-linecap:round;stroke-linejoin:round"
             id="path1368" />
        </g>
      </g>
    </g>
  </g>
</svg>
